# Blender v2.77 (sub 0) OBJ File: ''
# www.blender.org
mtllib potion_bottle_02.mtl
o Mesh_0018.rip
v 0.016106 0.207519 -0.050335
v -0.000821 0.251463 -0.045772
v 0.027937 0.251014 -0.035797
v -0.021211 0.207519 -0.050123
v -0.001013 0.282403 -0.040254
v 0.024186 0.283299 -0.032402
v -0.030156 0.251911 -0.029961
v -0.050257 0.207967 -0.022215
v -0.001302 0.334417 -0.040148
v 0.023993 0.334417 -0.032402
v -0.026020 0.334417 -0.030916
v -0.025732 0.281954 -0.031022
v -0.041217 0.251911 -0.003221
v -0.050065 0.208416 0.015986
v -0.035253 0.334417 -0.003433
v -0.034965 0.281506 -0.003539
v -0.025347 0.282403 0.020337
v -0.030733 0.251911 0.022671
v -0.021404 0.208416 0.039649
v -0.025539 0.334417 0.020443
v -0.001398 0.334417 0.029887
v -0.001206 0.281954 0.029675
v -0.001014 0.251911 0.035193
v 0.017453 0.207967 0.039119
v 0.023993 0.334417 0.020337
v 0.024186 0.282851 0.020231
v 0.027840 0.251463 0.025006
v 0.049288 0.207519 0.014076
v 0.033900 0.334417 -0.003433
v 0.034092 0.282403 -0.003539
v 0.039767 0.251014 -0.003114
v 0.049000 0.207519 -0.022745
v 0.023993 0.334417 -0.032402
v 0.024186 0.283299 -0.032402
v 0.027937 0.251014 -0.035797
v 0.016106 0.207519 -0.050335
v 0.018992 0.334417 -0.027308
v 0.023897 0.385984 -0.032932
v -0.001494 0.334417 -0.034524
v -0.001783 0.385984 -0.041952
v -0.019961 0.334417 -0.027202
v 0.033515 0.377016 -0.043968
v -0.024770 0.385984 -0.032720
v -0.029675 0.334417 -0.003645
v -0.002168 0.377016 -0.056596
v -0.036985 0.385984 -0.003327
v -0.019865 0.334417 0.016941
v -0.034292 0.377016 -0.043756
v -0.024674 0.385984 0.022353
v -0.001687 0.334417 0.024157
v -0.051508 0.377016 -0.002796
v -0.001975 0.385984 0.031479
v 0.020050 0.334417 0.015880
v -0.034195 0.377016 0.033176
v 0.025244 0.385984 0.021079
v 0.028898 0.334417 -0.003645
v -0.002456 0.377016 0.045910
v 0.036304 0.385984 -0.003327
v 0.018992 0.334417 -0.027308
v 0.035535 0.377016 0.031266
v 0.023897 0.385984 -0.032932
v 0.050924 0.377016 -0.002796
v 0.033515 0.377016 -0.043968
v 0.037266 0.366254 -0.048107
v -0.002168 0.377016 -0.056596
v 0.033515 0.377016 -0.043968
v 0.037266 0.366254 -0.048107
v -0.002360 0.366254 -0.062220
v -0.034292 0.377016 -0.043756
v -0.038043 0.366254 -0.048107
v -0.051508 0.377016 -0.002796
v -0.057279 0.366254 -0.002478
v -0.034195 0.377016 0.033176
v -0.037946 0.366254 0.037527
v -0.002456 0.377016 0.045910
v -0.002745 0.366254 0.051534
v 0.035535 0.377016 0.031266
v 0.039478 0.366254 0.035299
v 0.050924 0.377016 -0.002796
v 0.056406 0.366254 -0.002584
v 0.033515 0.377016 -0.043968
v 0.037266 0.366254 -0.048107
v -0.001687 0.366254 -0.042058
v -0.002360 0.366254 -0.062220
v 0.025532 0.366254 -0.034842
v -0.038043 0.366254 -0.048107
v -0.024962 0.366254 -0.033145
v 0.025532 0.366254 -0.034842
v 0.037266 0.366254 -0.048107
v -0.057279 0.366254 -0.002478
v -0.036119 0.366254 -0.003539
v -0.037946 0.366254 0.037527
v -0.025443 0.366254 0.023308
v -0.002745 0.366254 0.051534
v -0.001879 0.366254 0.031479
v 0.039478 0.366254 0.035299
v 0.025340 0.366254 0.020973
v 0.056406 0.366254 -0.002584
v 0.035342 0.366254 -0.003539
v 0.037266 0.366254 -0.048107
v 0.025532 0.366254 -0.034842
v 0.024955 0.351457 -0.034100
v -0.001687 0.366254 -0.042058
v 0.025532 0.366254 -0.034842
v 0.024955 0.351457 -0.034100
v -0.001591 0.351457 -0.041209
v -0.024962 0.366254 -0.033145
v -0.024289 0.351457 -0.032508
v -0.036119 0.366254 -0.003539
v -0.035253 0.351905 -0.003645
v -0.025443 0.366254 0.023308
v -0.024770 0.351905 0.022565
v -0.001879 0.366254 0.031479
v -0.001783 0.351457 0.030524
v 0.025340 0.366254 0.020973
v 0.024859 0.351457 0.020337
v 0.035342 0.366254 -0.003539
v 0.034573 0.351457 -0.003645
v 0.025532 0.366254 -0.034842
v 0.024955 0.351457 -0.034100
v 0.034573 0.351457 -0.003645
v 0.025532 0.366254 -0.034842
v 0.035342 0.366254 -0.003539
v -0.026020 0.334417 -0.030916
v -0.035253 0.334417 -0.003433
v -0.034388 0.337556 -0.043968
v -0.049873 0.337556 -0.002902
v 0.049096 0.337556 -0.002902
v 0.023993 0.334417 0.020337
v 0.033900 0.334417 -0.003433
v 0.035246 0.337556 0.030948
v -0.002168 0.337556 -0.056277
v 0.023993 0.334417 -0.032402
v -0.001302 0.334417 -0.040148
v 0.035535 0.337556 -0.046196
v -0.001302 0.334417 -0.040148
v -0.026020 0.334417 -0.030916
v -0.002168 0.337556 -0.056277
v -0.034388 0.337556 -0.043968
v 0.035246 0.337556 0.030948
v -0.002456 0.337556 0.045486
v 0.023993 0.334417 0.020337
v -0.001398 0.334417 0.029887
v -0.025539 0.334417 0.020443
v -0.035253 0.334417 -0.003433
v -0.035061 0.337556 0.034131
v -0.049873 0.337556 -0.002902
v -0.025539 0.334417 0.020443
v -0.035253 0.334417 -0.003433
v -0.035061 0.337556 0.034131
v 0.035535 0.337556 -0.046196
v 0.033900 0.334417 -0.003433
v 0.023993 0.334417 -0.032402
v 0.049096 0.337556 -0.002902
v -0.002456 0.337556 0.045486
v -0.025539 0.334417 0.020443
v -0.001398 0.334417 0.029887
v -0.035061 0.337556 0.034131
v 0.035246 0.337556 0.030948
v 0.048134 0.348318 -0.003008
v 0.034573 0.348318 0.030205
v 0.049096 0.337556 -0.002902
v -0.002360 0.348318 0.044424
v -0.002456 0.337556 0.045486
v 0.034573 0.348318 0.030205
v 0.035246 0.337556 0.030948
v 0.034862 0.348318 -0.045348
v 0.035535 0.337556 -0.046196
v -0.002071 0.348318 -0.055216
v -0.002168 0.337556 -0.056277
v -0.033618 0.348318 -0.043225
v -0.034388 0.337556 -0.043968
v -0.048719 0.348318 -0.003008
v -0.049873 0.337556 -0.002902
v -0.034292 0.348766 0.033389
v -0.035061 0.337556 0.034131
v -0.002360 0.348318 0.044424
v -0.002456 0.337556 0.045486
v -0.002168 0.337556 -0.056277
v -0.033618 0.348318 -0.043225
v -0.002071 0.348318 -0.055216
v -0.034388 0.337556 -0.043968
v 0.024955 0.351457 -0.034100
v 0.034862 0.348318 -0.045348
v -0.001591 0.351457 -0.041209
v -0.002071 0.348318 -0.055216
v -0.048719 0.348318 -0.003008
v -0.035253 0.351905 -0.003645
v -0.033618 0.348318 -0.043225
v -0.024289 0.351457 -0.032508
v -0.034292 0.348766 0.033389
v -0.001783 0.351457 0.030524
v -0.024770 0.351905 0.022565
v -0.002360 0.348318 0.044424
v 0.034573 0.348318 0.030205
v 0.024859 0.351457 0.020337
v -0.002360 0.348318 0.044424
v -0.001783 0.351457 0.030524
v -0.034292 0.348766 0.033389
v -0.024770 0.351905 0.022565
v -0.048719 0.348318 -0.003008
v -0.035253 0.351905 -0.003645
v -0.024289 0.351457 -0.032508
v -0.002071 0.348318 -0.055216
v -0.033618 0.348318 -0.043225
v -0.001591 0.351457 -0.041209
v 0.048134 0.348318 -0.003008
v 0.049096 0.337556 -0.002902
v 0.034862 0.348318 -0.045348
v 0.035535 0.337556 -0.046196
v -0.048719 0.348318 -0.003008
v -0.049873 0.337556 -0.002902
v -0.034292 0.348766 0.033389
v -0.035061 0.337556 0.034131
v 0.034573 0.351457 -0.003645
v 0.034573 0.348318 0.030205
v 0.048134 0.348318 -0.003008
v 0.024859 0.351457 0.020337
v 0.024955 0.351457 -0.034100
v 0.048134 0.348318 -0.003008
v 0.034862 0.348318 -0.045348
v 0.034573 0.351457 -0.003645
v -0.026116 0.189583 0.049836
v -0.096905 0.097211 0.039225
v -0.039966 0.097211 0.092494
v -0.056702 0.189583 0.022989
v -0.026309 0.189583 -0.058824
v -0.040543 0.097211 -0.099996
v -0.057471 0.189583 -0.019986
v -0.098059 0.097211 -0.039299
v 0.058426 0.189583 0.012378
v 0.024570 0.189583 0.051003
v 0.098725 0.097211 0.034131
v 0.041594 0.097211 0.091539
v 0.023128 0.189583 -0.057869
v 0.097763 0.097211 -0.042058
v 0.040728 0.097211 -0.099465
v 0.058137 0.189583 -0.025823
v -0.056702 0.189583 0.022989
v -0.057471 0.189583 -0.019986
v -0.096905 0.097211 0.039225
v -0.098059 0.097211 -0.039299
v -0.040543 0.097211 -0.099996
v 0.023128 0.189583 -0.057869
v 0.040728 0.097211 -0.099465
v -0.026309 0.189583 -0.058824
v -0.026116 0.189583 0.049836
v -0.039966 0.097211 0.092494
v 0.024570 0.189583 0.051003
v 0.041594 0.097211 0.091539
v 0.058426 0.189583 0.012378
v 0.097763 0.097211 -0.042058
v 0.058137 0.189583 -0.025823
v 0.098725 0.097211 0.034131
v 0.041594 0.097211 0.091539
v -0.039966 0.097211 0.092494
v 0.020050 0.012014 0.049306
v -0.020730 0.012014 0.047608
v 0.053039 0.012014 0.020124
v 0.097763 0.097211 -0.042058
v 0.098725 0.097211 0.034131
v 0.052462 0.012014 -0.021154
v -0.048815 0.012014 0.016198
v -0.096905 0.097211 0.039225
v -0.049777 0.012014 -0.025292
v -0.098059 0.097211 -0.039299
v 0.018799 0.012014 -0.051078
v -0.040543 0.097211 -0.099996
v 0.040728 0.097211 -0.099465
v -0.020057 0.012014 -0.050441
v 0.000429 -0.002334 -0.002690
v -0.048815 0.012014 0.016198
v -0.049777 0.012014 -0.025292
v 0.020050 0.012014 0.049306
v -0.020730 0.012014 0.047608
v 0.000429 -0.002334 -0.002690
v 0.000429 -0.002334 -0.002690
v 0.053039 0.012014 0.020124
v 0.020050 0.012014 0.049306
v 0.018799 0.012014 -0.051078
v 0.052462 0.012014 -0.021154
v 0.000429 -0.002334 -0.002690
v -0.020730 0.012014 0.047608
v -0.048815 0.012014 0.016198
v 0.000429 -0.002334 -0.002690
v 0.000429 -0.002334 -0.002690
v 0.052462 0.012014 -0.021154
v 0.053039 0.012014 0.020124
v -0.020057 0.012014 -0.050441
v 0.018799 0.012014 -0.051078
v 0.000429 -0.002334 -0.002690
v 0.000429 -0.002334 -0.002690
v -0.049777 0.012014 -0.025292
v -0.020057 0.012014 -0.050441
v 0.098725 0.097211 0.034131
v 0.020050 0.012014 0.049306
v 0.053039 0.012014 0.020124
v 0.041594 0.097211 0.091539
v 0.018799 0.012014 -0.051078
v 0.040728 0.097211 -0.099465
v 0.052462 0.012014 -0.021154
v 0.097763 0.097211 -0.042058
v -0.020057 0.012014 -0.050441
v -0.049777 0.012014 -0.025292
v -0.040543 0.097211 -0.099996
v -0.098059 0.097211 -0.039299
v -0.048815 0.012014 0.016198
v -0.020730 0.012014 0.047608
v -0.096905 0.097211 0.039225
v -0.039966 0.097211 0.092494
v -0.003033 0.199448 -0.079834
v -0.029771 0.207967 -0.065721
v 0.024089 0.207519 -0.067631
v -0.034195 0.190031 -0.072831
v -0.001494 0.213348 -0.059885
v -0.043429 0.213797 -0.042589
v -0.065262 0.208416 -0.026035
v -0.057375 0.199896 -0.054579
v -0.072571 0.190031 -0.028900
v -0.078438 0.199896 -0.002478
v -0.064973 0.208416 0.022034
v -0.059875 0.214245 -0.003327
v -0.072475 0.190031 0.023945
v -0.041986 0.214693 0.033495
v -0.030733 0.208416 0.056097
v -0.055644 0.198102 0.053444
v -0.001302 0.214245 0.047714
v 0.030245 0.208416 0.059174
v -0.000725 0.199448 0.069998
v -0.036311 0.190031 0.064692
v 0.081797 0.199448 -0.005131
v 0.072852 0.190031 -0.031871
v 0.067178 0.207519 -0.028263
v 0.041786 0.212900 -0.041634
v 0.024089 0.207519 -0.067631
v 0.053520 0.198551 -0.058612
v 0.072852 0.190031 -0.031871
v 0.026109 0.190031 -0.072831
v 0.053520 0.198551 -0.058612
v 0.048615 0.184202 -0.047364
v 0.024089 0.207519 -0.067631
v 0.053520 0.198551 -0.058612
v 0.026109 0.190031 -0.072831
v -0.055644 0.198102 0.053444
v -0.072475 0.190031 0.023945
v -0.036311 0.190031 0.064692
v -0.049584 0.184202 0.045698
v 0.057560 0.199448 0.047608
v 0.066601 0.207967 0.021928
v 0.030245 0.208416 0.059174
v 0.072660 0.190031 0.022990
v 0.042267 0.213797 0.036996
v 0.081797 0.199448 -0.005131
v -0.029771 0.207967 -0.065721
v -0.021211 0.207519 -0.050123
v -0.001494 0.213348 -0.059885
v -0.043429 0.213797 -0.042589
v 0.016106 0.207519 -0.050335
v 0.024089 0.207519 -0.067631
v -0.050257 0.207967 -0.022215
v -0.065262 0.208416 -0.026035
v -0.059875 0.214245 -0.003327
v -0.050065 0.208416 0.015986
v -0.064973 0.208416 0.022034
v -0.041986 0.214693 0.033495
v -0.021404 0.208416 0.039649
v -0.030733 0.208416 0.056097
v -0.001302 0.214245 0.047714
v 0.017453 0.207967 0.039119
v 0.030245 0.208416 0.059174
v 0.042267 0.213797 0.036996
v 0.049288 0.207519 0.014076
v 0.066601 0.207967 0.021928
v 0.060830 0.213348 -0.002159
v 0.049000 0.207519 -0.022745
v 0.067178 0.207519 -0.028263
v 0.041786 0.212900 -0.041634
v 0.016106 0.207519 -0.050335
v 0.024089 0.207519 -0.067631
v -0.056702 0.189583 0.022989
v -0.068820 0.184202 0.002191
v -0.057471 0.189583 -0.019986
v -0.072475 0.190031 0.023945
v -0.049584 0.184202 0.045698
v -0.026116 0.189583 0.049836
v -0.026309 0.189583 -0.058824
v -0.052566 0.184202 -0.046621
v -0.072571 0.190031 -0.028900
v -0.036311 0.190031 0.064692
v 0.001487 0.184202 0.060660
v 0.024570 0.189583 0.051003
v 0.023128 0.189583 -0.057869
v -0.004572 0.184202 -0.068693
v -0.034195 0.190031 -0.072831
v 0.030437 0.190031 0.062251
v 0.050924 0.184202 0.040286
v 0.058426 0.189583 0.012378
v 0.026109 0.190031 -0.072831
v 0.072660 0.190031 0.022990
v 0.070063 0.184202 -0.009481
v 0.058137 0.189583 -0.025823
v 0.072852 0.190031 -0.031871
v 0.048615 0.184202 -0.047364
v 0.023128 0.189583 -0.057869
v 0.026109 0.190031 -0.072831
v -0.068820 0.184202 0.002191
v -0.072475 0.190031 0.023945
v -0.072571 0.190031 -0.028900
v -0.078438 0.199896 -0.002478
v 0.070063 0.184202 -0.009481
v 0.072852 0.190031 -0.031871
v 0.072660 0.190031 0.022990
v 0.081797 0.199448 -0.005131
v 0.001487 0.184202 0.060660
v 0.030437 0.190031 0.062251
v -0.036311 0.190031 0.064692
v -0.000725 0.199448 0.069998
v 0.060830 0.213348 -0.002159
v 0.066601 0.207967 0.021928
v 0.067178 0.207519 -0.028263
v 0.081797 0.199448 -0.005131
v 0.057560 0.199448 0.047608
v 0.030245 0.208416 0.059174
v 0.030437 0.190031 0.062251
v -0.000725 0.199448 0.069998
v 0.030437 0.190031 0.062251
v 0.072660 0.190031 0.022990
v 0.057560 0.199448 0.047608
v 0.050924 0.184202 0.040286
v -0.003033 0.199448 -0.079834
v 0.024089 0.207519 -0.067631
v 0.026109 0.190031 -0.072831
v -0.003033 0.199448 -0.079834
v 0.026109 0.190031 -0.072831
v -0.034195 0.190031 -0.072831
v -0.004572 0.184202 -0.068693
v -0.034195 0.190031 -0.072831
v -0.072571 0.190031 -0.028900
v -0.057375 0.199896 -0.054579
v -0.052566 0.184202 -0.046621
vt 0.0044 -0.4194
vt 0.1138 -0.3408
vt 0.0000 -0.3428
vt 0.1177 -0.4199
vt 0.1152 -0.2612
vt 0.0029 -0.2598
vt 0.2344 -0.3398
vt 0.2466 -0.4233
vt 0.1123 -0.2104
vt -0.0010 -0.2104
vt 0.2290 -0.2104
vt 0.2310 -0.2637
vt 0.3647 -0.3403
vt 0.3696 -0.4238
vt 0.3599 -0.2104
vt 0.3638 -0.2646
vt 0.4893 -0.2622
vt 0.4883 -0.3389
vt 0.4883 -0.4248
vt 0.4878 -0.2119
vt 0.5996 -0.2104
vt 0.6050 -0.2632
vt 0.6069 -0.3408
vt 0.6201 -0.4180
vt 0.7329 -0.2109
vt 0.7368 -0.2612
vt 0.7407 -0.3433
vt 0.7544 -0.4194
vt 0.8589 -0.2109
vt 0.8618 -0.2617
vt 0.8604 -0.3428
vt 0.8647 -0.4214
vt 0.9937 -0.2104
vt 0.9976 -0.2598
vt 0.9976 -0.3428
vt 0.9951 -0.4189
vt 0.0000 -0.0024
vt 0.0010 -0.0366
vt 0.1177 -0.0024
vt 0.1182 -0.0366
vt 0.2310 -0.0024
vt -0.0010 -0.0605
vt 0.2310 -0.0366
vt 0.3604 -0.0024
vt 0.1167 -0.0605
vt 0.3604 -0.0366
vt 0.4849 -0.0024
vt 0.2310 -0.0605
vt 0.4868 -0.0366
vt 0.5991 -0.0024
vt 0.3618 -0.0605
vt 0.5977 -0.0366
vt 0.7310 -0.0024
vt 0.4888 -0.0605
vt 0.7334 -0.0366
vt 0.8569 -0.0024
vt 0.5991 -0.0605
vt 0.8569 -0.0366
vt 0.9956 -0.0024
vt 0.7339 -0.0605
vt 0.9956 -0.0366
vt 0.8574 -0.0591
vt 0.9937 -0.0605
vt -0.0015 -0.0952
vt 0.1167 -0.0605
vt -0.0010 -0.0605
vt -0.0015 -0.0938
vt 0.1162 -0.0952
vt 0.2310 -0.0605
vt 0.2305 -0.0952
vt 0.3618 -0.0605
vt 0.3618 -0.0952
vt 0.4888 -0.0605
vt 0.4893 -0.0952
vt 0.5991 -0.0605
vt 0.5996 -0.0962
vt 0.7339 -0.0605
vt 0.7339 -0.1025
vt 0.8574 -0.0591
vt 0.8569 -0.1055
vt 0.9937 -0.0605
vt 0.9932 -0.1138
vt 0.1177 -0.1123
vt 0.1162 -0.0952
vt 0.0005 -0.0938
vt 0.2305 -0.0952
vt 0.2305 -0.1123
vt 0.0005 -0.1187
vt -0.0015 -0.0938
vt 0.3618 -0.0952
vt 0.3599 -0.1138
vt 0.4893 -0.0952
vt 0.4868 -0.1138
vt 0.5996 -0.0962
vt 0.5977 -0.1162
vt 0.7339 -0.1025
vt 0.7344 -0.1187
vt 0.8569 -0.1055
vt 0.8594 -0.1206
vt 0.9932 -0.1138
vt 0.9951 -0.1138
vt 0.0010 -0.1313
vt 0.1177 -0.1123
vt 0.0005 -0.1187
vt -0.0010 -0.1313
vt 0.1157 -0.1309
vt 0.2305 -0.1123
vt 0.2319 -0.1309
vt 0.3599 -0.1138
vt 0.3628 -0.1318
vt 0.4868 -0.1138
vt 0.4883 -0.1338
vt 0.5977 -0.1162
vt 0.5947 -0.1323
vt 0.7344 -0.1187
vt 0.7329 -0.1343
vt 0.8594 -0.1206
vt 0.8579 -0.1313
vt 0.9951 -0.1138
vt 0.9917 -0.1328
vt 0.8579 -0.1313
vt 0.9951 -0.1138
vt 0.8594 -0.1206
vt 0.2290 -0.2104
vt 0.3599 -0.2104
vt 0.2305 -0.1865
vt 0.3613 -0.1865
vt 0.8560 -0.1865
vt 0.7329 -0.2109
vt 0.8589 -0.2109
vt 0.7339 -0.1865
vt 0.1167 -0.1865
vt -0.0010 -0.2104
vt 0.1123 -0.2104
vt -0.0010 -0.1865
vt 0.1123 -0.2104
vt 0.2290 -0.2104
vt 0.1167 -0.1865
vt 0.2305 -0.1865
vt 0.7339 -0.1865
vt 0.5991 -0.1865
vt 0.7329 -0.2109
vt 0.5996 -0.2104
vt 0.4878 -0.2119
vt 0.3599 -0.2104
vt 0.4888 -0.1865
vt 0.3613 -0.1865
vt 0.4878 -0.2119
vt 0.3599 -0.2104
vt 0.4888 -0.1865
vt 0.9937 -0.1865
vt 0.8589 -0.2109
vt 0.9937 -0.2104
vt 0.8560 -0.1865
vt 0.5991 -0.1865
vt 0.4878 -0.2119
vt 0.5996 -0.2104
vt 0.4888 -0.1865
vt 0.7339 -0.1865
vt 0.8560 -0.1592
vt 0.7339 -0.1641
vt 0.8560 -0.1865
vt 0.5991 -0.1587
vt 0.5991 -0.1865
vt 0.7339 -0.1641
vt 0.7339 -0.1865
vt 0.0005 -0.1626
vt -0.0010 -0.1865
vt 0.1167 -0.1592
vt 0.1167 -0.1865
vt 0.2305 -0.1592
vt 0.2305 -0.1865
vt 0.3613 -0.1587
vt 0.3613 -0.1865
vt 0.4888 -0.1587
vt 0.4888 -0.1865
vt 0.5991 -0.1587
vt 0.5991 -0.1865
vt 0.1167 -0.1865
vt 0.2305 -0.1592
vt 0.1167 -0.1592
vt 0.2305 -0.1865
vt -0.0010 -0.1328
vt -0.0010 -0.1592
vt 0.1157 -0.1309
vt 0.1167 -0.1592
vt 0.3613 -0.1587
vt 0.3628 -0.1318
vt 0.2305 -0.1592
vt 0.2319 -0.1309
vt 0.4888 -0.1587
vt 0.5947 -0.1323
vt 0.4883 -0.1338
vt 0.5991 -0.1587
vt 0.7339 -0.1641
vt 0.7329 -0.1343
vt 0.5991 -0.1587
vt 0.5947 -0.1323
vt 0.4888 -0.1587
vt 0.4883 -0.1338
vt 0.3613 -0.1587
vt 0.3628 -0.1318
vt 0.2319 -0.1309
vt 0.1167 -0.1592
vt 0.2305 -0.1592
vt 0.1157 -0.1309
vt 0.8560 -0.1592
vt 0.8560 -0.1865
vt 0.9937 -0.1592
vt 0.9937 -0.1865
vt 0.3613 -0.1587
vt 0.3613 -0.1865
vt 0.4888 -0.1587
vt 0.4888 -0.1865
vt 0.8579 -0.1313
vt 0.7339 -0.1641
vt 0.8560 -0.1592
vt 0.7329 -0.1343
vt 0.9917 -0.1328
vt 0.8560 -0.1592
vt 0.9937 -0.1592
vt 0.8579 -0.1313
vt 0.4917 -0.5474
vt 0.3623 -0.7432
vt 0.5059 -0.7402
vt 0.3740 -0.5474
vt 0.1216 -0.5474
vt 0.1216 -0.7397
vt 0.2437 -0.5469
vt 0.2446 -0.7373
vt 0.7578 -0.5474
vt 0.6294 -0.5469
vt 0.7544 -0.7388
vt 0.6343 -0.7427
vt 0.9858 -0.5469
vt 0.8677 -0.7373
vt 0.9863 -0.7402
vt 0.8701 -0.5469
vt 0.3740 -0.5474
vt 0.2437 -0.5469
vt 0.3623 -0.7432
vt 0.2446 -0.7373
vt 0.1216 -0.7397
vt 0.0063 -0.5474
vt 0.0049 -0.7397
vt 0.1216 -0.5474
vt 0.4917 -0.5474
vt 0.5059 -0.7402
vt 0.6294 -0.5469
vt 0.6343 -0.7427
vt 0.7578 -0.5474
vt 0.8677 -0.7373
vt 0.8701 -0.5469
vt 0.7544 -0.7388
vt 0.6343 -0.7427
vt 0.5059 -0.7402
vt 0.6226 -0.9668
vt 0.4927 -0.9678
vt 0.7534 -0.9604
vt 0.8677 -0.7373
vt 0.7554 -0.7397
vt 0.8638 -0.9609
vt 0.3647 -0.9668
vt 0.3623 -0.7432
vt 0.2422 -0.9624
vt 0.2446 -0.7373
vt 0.0049 -0.9668
vt 0.1216 -0.7397
vt 0.0049 -0.7397
vt 0.1187 -0.9648
vt 0.5938 -0.9937
vt 0.3647 -0.9668
vt 0.2422 -0.9624
vt 0.6226 -0.9668
vt 0.4927 -0.9678
vt 0.5938 -0.9937
vt 0.5938 -0.9937
vt 0.7402 -0.9624
vt 0.6226 -0.9668
vt 0.9893 -0.9668
vt 0.8638 -0.9609
vt 0.5938 -0.9937
vt 0.4927 -0.9678
vt 0.3647 -0.9668
vt 0.5938 -0.9937
vt 0.5938 -0.9937
vt 0.8638 -0.9609
vt 0.7402 -0.9624
vt 0.1187 -0.9648
vt 0.0049 -0.9668
vt 0.5938 -0.9937
vt 0.5938 -0.9937
vt 0.2422 -0.9624
vt 0.1187 -0.9648
vt 0.7554 -0.7397
vt 0.6226 -0.9668
vt 0.7402 -0.9624
vt 0.6343 -0.7427
vt 0.9893 -0.9668
vt 0.9863 -0.7402
vt 0.8638 -0.9609
vt 0.8677 -0.7373
vt 0.1187 -0.9648
vt 0.2422 -0.9624
vt 0.1216 -0.7397
vt 0.2446 -0.7373
vt 0.3647 -0.9668
vt 0.4927 -0.9678
vt 0.3623 -0.7432
vt 0.5059 -0.7402
vt 0.0581 -0.4761
vt 0.1201 -0.4526
vt 0.0044 -0.4546
vt 0.1211 -0.5015
vt 0.0684 -0.4351
vt 0.1919 -0.4360
vt 0.2441 -0.4517
vt 0.1870 -0.4746
vt 0.2437 -0.4976
vt 0.3096 -0.4736
vt 0.3677 -0.4521
vt 0.3120 -0.4365
vt 0.3696 -0.5005
vt 0.4365 -0.4365
vt 0.4912 -0.4507
vt 0.4355 -0.4775
vt 0.5703 -0.4307
vt 0.6182 -0.4570
vt 0.5552 -0.4746
vt 0.4922 -0.4990
vt 0.8140 -0.4756
vt 0.8657 -0.5005
vt 0.8643 -0.4546
vt 0.9346 -0.4355
vt 0.9946 -0.4546
vt 0.9292 -0.4775
vt 0.8657 -0.5005
vt 0.9937 -0.5005
vt 0.9292 -0.4775
vt 0.9189 -0.5288
vt 0.9946 -0.4546
vt 0.9292 -0.4775
vt 0.9937 -0.5005
vt 0.4355 -0.4775
vt 0.3696 -0.5005
vt 0.4922 -0.4990
vt 0.4292 -0.5249
vt 0.6929 -0.4746
vt 0.7520 -0.4526
vt 0.6182 -0.4570
vt 0.7534 -0.5005
vt 0.6899 -0.4370
vt 0.8140 -0.4756
vt 0.1201 -0.4526
vt 0.1177 -0.4199
vt 0.0684 -0.4351
vt 0.1919 -0.4360
vt 0.0044 -0.4194
vt 0.0044 -0.4546
vt 0.2466 -0.4233
vt 0.2441 -0.4517
vt 0.3120 -0.4365
vt 0.3696 -0.4238
vt 0.3677 -0.4521
vt 0.4365 -0.4365
vt 0.4883 -0.4248
vt 0.4912 -0.4507
vt 0.5703 -0.4307
vt 0.6201 -0.4180
vt 0.6182 -0.4570
vt 0.6899 -0.4370
vt 0.7544 -0.4194
vt 0.7520 -0.4526
vt 0.8101 -0.4365
vt 0.8647 -0.4214
vt 0.8643 -0.4546
vt 0.9346 -0.4355
vt 0.9951 -0.4189
vt 0.9946 -0.4546
vt 0.3740 -0.5474
vt 0.3003 -0.5259
vt 0.2437 -0.5469
vt 0.3696 -0.5005
vt 0.4292 -0.5249
vt 0.4917 -0.5474
vt 0.1216 -0.5474
vt 0.1816 -0.5229
vt 0.2437 -0.4976
vt 0.4922 -0.4990
vt 0.5547 -0.5249
vt 0.6294 -0.5469
vt 0.0063 -0.5474
vt 0.0610 -0.5254
vt 0.1211 -0.5015
vt 0.6240 -0.5005
vt 0.6841 -0.5264
vt 0.7578 -0.5474
vt 0.0059 -0.5000
vt 0.7534 -0.5005
vt 0.8101 -0.5244
vt 0.8701 -0.5469
vt 0.8657 -0.5005
vt 0.9189 -0.5288
vt 0.9858 -0.5469
vt 0.9937 -0.5005
vt 0.3003 -0.5259
vt 0.3696 -0.5005
vt 0.2437 -0.4976
vt 0.3096 -0.4736
vt 0.8101 -0.5244
vt 0.8657 -0.5005
vt 0.7534 -0.5005
vt 0.8140 -0.4756
vt 0.5547 -0.5249
vt 0.6240 -0.5005
vt 0.4922 -0.4990
vt 0.5552 -0.4746
vt 0.8101 -0.4365
vt 0.7520 -0.4526
vt 0.8643 -0.4546
vt 0.8140 -0.4756
vt 0.6929 -0.4746
vt 0.6182 -0.4570
vt 0.6240 -0.5005
vt 0.5552 -0.4746
vt 0.6240 -0.5005
vt 0.7534 -0.5005
vt 0.6929 -0.4746
vt 0.6841 -0.5264
vt 0.0581 -0.4761
vt 0.0044 -0.4546
vt 0.0059 -0.5000
vt 0.0581 -0.4761
vt 0.0059 -0.5000
vt 0.1211 -0.5015
vt 0.0610 -0.5254
vt 0.1211 -0.5015
vt 0.2437 -0.4976
vt 0.1870 -0.4746
vt 0.1816 -0.5229
vn -0.1347 -0.2461 0.9598
vn 0.2973 -0.2451 0.9228
vn 0.1238 -0.3176 0.9401
vn 0.5222 -0.4068 0.7496
vn -0.1025 -0.1768 0.9789
vn 0.2380 -0.0403 0.9704
vn 0.6781 -0.3681 0.6362
vn 0.7920 -0.0551 0.6080
vn 0.2327 0.1491 0.9611
vn -0.2596 0.4546 0.8520
vn 0.7394 -0.3209 0.5918
vn 0.6950 0.2130 0.6867
vn 0.9597 -0.2004 0.1972
vn 0.9603 0.0648 -0.2713
vn 0.9568 -0.2078 -0.2036
vn 0.9858 -0.0591 -0.1570
vn 0.8225 -0.0559 -0.5660
vn 0.8252 -0.1409 -0.5469
vn 0.0940 -0.0636 -0.9935
vn 0.7300 -0.2901 -0.6189
vn 0.0177 -0.2758 -0.9611
vn -0.1578 -0.1616 -0.9742
vn 0.2207 -0.2938 -0.9300
vn -0.5351 -0.2426 -0.8092
vn -0.7629 0.2749 -0.5851
vn -0.5466 -0.0858 -0.8330
vn -0.6507 0.0364 -0.7585
vn -0.7016 -0.4745 -0.5315
vn -0.9620 -0.2682 0.0510
vn -0.9619 -0.2662 -0.0628
vn -0.9382 -0.3104 0.1530
vn -0.9879 0.0186 0.1539
vn -0.8453 0.4497 0.2884
vn -0.9768 -0.0504 -0.2084
vn -0.9592 -0.1045 0.2629
vn -0.6491 -0.4135 0.6385
vn 0.3193 0.2781 -0.9059
vn 0.7374 -0.6753 0.0165
vn -0.2292 -0.3509 -0.9079
vn 0.5360 -0.8426 -0.0526
vn -0.4881 -0.3945 -0.7785
vn -0.1032 -0.9359 0.3367
vn 0.4143 -0.8665 -0.2785
vn -0.8726 -0.4878 0.0249
vn 0.0199 -0.7654 0.6432
vn 0.0062 -0.8592 -0.5116
vn -0.6508 -0.4412 0.6179
vn 0.4658 -0.7510 0.4681
vn -0.3840 -0.8520 -0.3560
vn -0.1237 -0.4144 0.9017
vn 0.6680 -0.7440 -0.0157
vn -0.5229 -0.8520 -0.0246
vn 0.8493 -0.2630 0.4577
vn 0.4474 -0.7566 -0.4769
vn -0.3847 -0.8575 0.3415
vn 0.8854 -0.4468 -0.1283
vn 0.0007 -0.7539 -0.6570
vn -0.0489 -0.8595 0.5088
vn 0.8855 0.2794 -0.3712
vn -0.4597 -0.7514 -0.4733
vn -0.2422 -0.8599 -0.4493
vn -0.6637 -0.7479 -0.0132
vn -0.3348 -0.9337 0.1270
vn -0.3314 -0.7147 0.6159
vn -0.5864 -0.3817 0.7145
vn -0.3296 -0.0683 0.9416
vn 0.2732 -0.5140 0.8131
vn 0.0450 -0.5527 0.8321
vn 0.0344 -0.6976 0.7156
vn 0.7221 -0.1584 0.6734
vn 0.5731 -0.1965 0.7956
vn 0.9271 -0.2698 0.2603
vn 0.9291 -0.2499 -0.2726
vn 0.7904 -0.2400 -0.5636
vn 0.4016 -0.3636 -0.8405
vn -0.1746 -0.6634 -0.7276
vn 0.1010 -0.6926 -0.7142
vn -0.8219 -0.3901 -0.4151
vn -0.4648 -0.2695 -0.8434
vn -0.6868 -0.7268 0.0063
vn -0.6958 -0.7182 -0.0056
vn -0.9212 -0.0676 0.3831
vn -0.6295 -0.7291 0.2686
vn 0.0000 1.0000 0.0000
vn -0.0000 1.0000 0.0001
vn -0.4539 -0.3727 0.8094
vn -0.5013 0.2023 0.8413
vn -0.2129 0.5313 0.8200
vn 0.2759 -0.0353 0.9605
vn 0.1860 -0.1687 0.9680
vn 0.2702 0.2260 0.9359
vn 0.9028 0.1550 0.4011
vn 0.6857 0.4249 0.5910
vn 0.9244 0.3766 0.0601
vn 0.9275 0.3208 0.1920
vn 0.4487 -0.1870 -0.8739
vn 0.3821 -0.0270 -0.9237
vn -0.3233 0.0774 -0.9431
vn -0.2585 0.2596 -0.9305
vn -0.5923 0.3977 -0.7008
vn -0.5676 0.3902 -0.7250
vn -0.9349 0.3527 -0.0390
vn -0.9388 0.3305 0.0969
vn -0.8129 0.5247 0.2529
vn -0.8585 -0.4325 0.2757
vn -0.9522 0.0463 0.3019
vn -0.9527 0.0507 0.2997
vn -0.9542 0.0470 0.2954
vn 0.2369 0.9682 0.0806
vn 0.2173 0.9733 0.0733
vn 0.2351 0.9688 0.0781
vn 0.2115 0.9739 0.0822
vn -0.1973 0.9767 -0.0839
vn -0.1954 0.9773 -0.0822
vn -0.1984 0.9768 -0.0810
vn -0.1974 0.9770 -0.0804
vn -0.0611 0.9800 0.1894
vn -0.0558 0.9818 0.1817
vn -0.0563 0.9795 0.1932
vn -0.0483 0.9819 0.1834
vn 0.0678 0.9800 0.1871
vn 0.0729 0.9795 0.1878
vn 0.0721 0.9796 0.1876
vn 0.0712 0.9791 0.1904
vn -0.0781 0.9754 -0.2062
vn -0.0182 0.9676 -0.2517
vn -0.0783 0.9758 -0.2042
vn 0.0077 0.9666 -0.2562
vn 0.0760 0.9786 -0.1914
vn 0.2058 0.9752 -0.0815
vn 0.2055 0.9752 -0.0818
vn 0.2065 0.9749 -0.0836
vn 0.2006 0.9761 -0.0837
vn 0.2055 0.9751 -0.0830
vn 0.2047 0.9755 -0.0806
vn -0.1941 0.9789 0.0646
vn -0.2010 0.9774 0.0650
vn -0.1870 0.9801 0.0665
vn -0.2040 0.9767 0.0663
vn 0.0739 0.9800 -0.1849
vn 0.0701 0.9810 -0.1808
vn 0.0747 0.9784 -0.1927
vn 0.0619 0.9813 -0.1820
vn -0.9217 -0.0825 -0.3790
vn -0.9222 -0.0835 -0.3777
vn -0.9227 -0.0849 -0.3761
vn -0.9219 -0.0880 -0.3773
vn -0.3575 -0.0877 -0.9298
vn -0.3580 -0.0889 -0.9295
vn -0.3556 -0.0882 -0.9305
vn -0.3618 -0.0852 -0.9284
vn -0.2569 -0.0923 0.9620
vn -0.2571 -0.0910 0.9621
vn -0.2568 -0.0915 0.9621
vn -0.2576 -0.0933 0.9617
vn 0.9335 -0.0897 0.3472
vn 0.9310 -0.0930 0.3530
vn 0.9324 -0.0955 0.3487
vn 0.9304 -0.0966 0.3535
vn 0.3121 -0.0804 -0.9466
vn 0.3371 -0.0907 -0.9371
vn 0.3330 -0.0944 -0.9382
vn 0.3254 -0.0957 -0.9407
vn 0.3534 -0.0940 0.9307
vn 0.3512 -0.0915 0.9318
vn 0.3544 -0.0951 0.9303
vn 0.3613 -0.0884 0.9282
vn -0.0489 -0.9715 0.2320
vn -0.0686 -0.9753 0.2099
vn -0.0702 -0.9731 0.2196
vn -0.0482 -0.9742 0.2205
vn 0.2607 -0.9631 0.0664
vn 0.2538 -0.9605 0.1145
vn 0.2292 -0.9684 0.0984
vn 0.2058 -0.9743 0.0914
vn 0.0502 -0.9762 -0.2111
vn 0.0585 -0.9771 -0.2044
vn 0.0683 -0.9678 -0.2422
vn 0.0647 -0.9712 -0.2295
vn -0.0930 -0.9717 -0.2172
vn -0.0810 -0.9699 -0.2296
vn -0.0831 -0.9705 -0.2262
vn -0.0845 -0.9722 -0.2182
vn 0.2210 -0.9726 -0.0721
vn 0.2519 -0.9639 -0.0858
vn 0.2507 -0.9659 -0.0652
vn 0.2499 -0.9593 -0.1317
vn 0.0770 -0.9736 0.2151
vn 0.0739 -0.9747 0.2108
vn 0.0831 -0.9734 0.2137
vn 0.0952 -0.9707 0.2207
vn -0.9504 -0.0821 0.3001
vn -0.9516 -0.0822 0.2962
vn -0.9515 -0.0824 0.2965
vn -0.9506 -0.0833 0.2990
vn 0.9266 -0.1059 -0.3608
vn 0.9250 -0.0996 -0.3667
vn 0.9267 -0.0906 -0.3647
vn 0.9212 -0.0870 -0.3792
vn -0.2215 -0.9695 -0.1053
vn -0.2163 -0.9712 -0.1001
vn -0.2206 -0.9726 -0.0738
vn -0.2245 -0.9711 -0.0815
vn -0.2386 -0.9692 0.0614
vn -0.2276 -0.9722 0.0558
vn -0.2158 -0.9731 0.0806
vn -0.2285 -0.9695 0.0881
vn 0.6173 -0.3819 -0.6879
vn 0.6271 -0.3983 -0.6694
vn 0.6249 -0.4025 -0.6689
vn 0.6084 -0.3883 -0.6922
vn 0.7236 -0.3719 0.5815
vn 0.6936 -0.3903 0.6054
vn 0.7161 -0.3944 0.5759
vn 0.6581 -0.4196 0.6252
vn -0.6775 -0.4350 -0.5931
vn -0.6797 -0.4223 -0.5997
vn -0.6648 -0.4209 -0.6172
vn -0.6498 -0.4027 -0.6446
vn -0.6274 -0.3856 0.6765
vn -0.6438 -0.3933 0.6564
vn -0.6470 -0.4123 0.6414
vn -0.6229 -0.3880 0.6793
vn 0.9156 -0.4019 -0.0165
vn 0.9160 -0.4009 -0.0152
vn 0.9163 -0.4003 -0.0143
vn 0.9166 -0.3997 -0.0140
vn -0.0114 -0.4072 0.9133
vn -0.0160 -0.4034 0.9149
vn -0.0059 -0.4115 0.9114
vn -0.0161 -0.4058 0.9138
vn 0.0199 -0.4211 -0.9068
vn 0.0060 -0.4041 -0.9147
vn 0.0184 -0.4104 -0.9117
vn -0.0103 -0.4042 -0.9146
vn -0.9189 -0.3944 0.0066
vn -0.9184 -0.3955 0.0112
vn -0.9181 -0.3964 0.0068
vn -0.9176 -0.3974 0.0119
vn -0.0104 0.4463 -0.8948
vn 0.0122 0.4562 -0.8898
vn 0.0323 0.4547 -0.8900
vn 0.0375 0.4719 -0.8808
vn -0.8818 0.4715 0.0119
vn -0.8819 0.4713 0.0114
vn -0.8819 0.4712 0.0126
vn -0.8821 0.4708 0.0128
vn 0.8689 0.4946 -0.0207
vn 0.8702 0.4925 -0.0147
vn 0.8700 0.4927 -0.0186
vn 0.8708 0.4914 -0.0128
vn 0.0117 0.4972 0.8675
vn 0.0027 0.4995 0.8663
vn -0.0041 0.4948 0.8690
vn 0.0146 0.5051 0.8630
vn 0.2801 0.9599 -0.0067
vn 0.2761 0.9611 -0.0088
vn 0.2769 0.9609 -0.0037
vn 0.0085 0.9632 -0.2686
vn 0.0142 0.9630 -0.2691
vn 0.0109 0.9620 -0.2729
vn -0.1783 0.9632 -0.2009
vn -0.1772 0.9642 -0.1972
vn -0.1743 0.9641 -0.2004
vn -0.1869 0.9588 0.2140
vn -0.1893 0.9592 0.2101
vn -0.1911 0.9580 0.2136
vn 0.2058 0.9605 -0.1871
vn 0.2095 0.9604 -0.1839
vn 0.2100 0.9594 -0.1884
vn -0.2671 0.9636 0.0037
vn -0.2637 0.9646 0.0060
vn -0.2638 0.9646 0.0012
vn 0.0068 0.9586 0.2848
vn 0.0024 0.9584 0.2854
vn 0.0050 0.9576 0.2880
vn 0.1807 0.9600 0.2140
vn 0.1810 0.9609 0.2097
vn 0.1765 0.9611 0.2123
vn -0.6120 0.4486 -0.6513
vn -0.5947 0.4427 -0.6711
vn -0.5980 0.4325 -0.6748
vn -0.6279 0.4679 -0.6220
vn -0.5695 0.5135 0.6418
vn -0.5970 0.4965 0.6301
vn -0.5790 0.5146 0.6324
vn -0.6215 0.4820 0.6176
vn 0.5528 0.5138 0.6560
vn 0.5652 0.4922 0.6620
vn 0.6042 0.4930 0.6260
vn 0.6425 0.4640 0.6099
vn 0.6390 0.5151 -0.5713
vn 0.6385 0.5088 -0.5774
vn 0.6270 0.4802 -0.6134
vn 0.6019 0.4747 -0.6421
vn 0.0087 -0.8623 0.5064
vn 0.1019 -0.7808 0.6165
vn 0.0034 -0.8344 0.5512
vn 0.3837 -0.4705 0.7946
vn 0.0197 -0.7652 0.6435
vn 0.5381 -0.6859 0.4899
vn 0.9102 -0.3478 0.2250
vn 0.3588 -0.8843 0.2988
vn 0.8539 -0.3879 0.3470
vn 0.8566 -0.4779 -0.1945
vn 0.7462 -0.3836 -0.5441
vn 0.7399 -0.6727 0.0002
vn 0.8543 -0.3753 -0.3595
vn 0.4482 -0.7729 -0.4491
vn 0.4470 -0.4445 -0.7763
vn 0.6343 -0.4424 -0.6340
vn 0.0226 -0.8601 -0.5096
vn 0.0228 -0.8280 -0.5602
vn 0.1724 -0.7923 -0.5852
vn 0.2704 -0.4697 -0.8404
vn -0.8412 -0.3564 0.4066
vn -0.8309 -0.3318 0.4466
vn -0.7058 -0.3379 0.6226
vn -0.4034 -0.8006 0.4431
vn -0.3859 -0.8230 0.4168
vn -0.4507 -0.6807 0.5775
vn -0.5183 0.6187 0.5904
vn -0.5146 0.6212 0.5910
vn -0.4947 0.6605 0.5648
vn -0.5286 0.5980 0.6025
vn -0.3574 -0.2790 0.8913
vn -0.3642 -0.3034 0.8805
vn -0.3529 -0.3289 0.8759
vn 0.5610 0.6634 -0.4952
vn 0.6357 0.5344 -0.5571
vn 0.6280 0.5289 -0.5709
vn 0.6757 0.4267 -0.6011
vn -0.5342 -0.7959 -0.2848
vn -0.7165 -0.3527 -0.6018
vn -0.4440 -0.7932 -0.4168
vn -0.8630 -0.3124 -0.3969
vn -0.4490 -0.7821 -0.4321
vn -0.8693 -0.3093 -0.3856
vn -0.1530 -0.9720 -0.1782
vn -0.1351 -0.9569 -0.2569
vn 0.0645 -0.9832 -0.1710
vn -0.1204 -0.9830 -0.1385
vn -0.1889 -0.9342 -0.3028
vn -0.1911 -0.9713 0.1419
vn -0.2912 -0.9513 -0.1014
vn -0.2622 -0.9650 -0.0049
vn -0.5187 -0.8337 0.1896
vn -0.0243 -0.9991 -0.0346
vn 0.1443 -0.9747 -0.1706
vn -0.0798 -0.9895 0.1203
vn 0.0723 -0.9959 0.0541
vn 0.1261 -0.9805 -0.1508
vn -0.2408 -0.9012 0.3603
vn 0.0475 -0.9554 0.2915
vn 0.1198 -0.9785 0.1679
vn 0.0011 -0.9980 0.0625
vn 0.2321 -0.9590 0.1625
vn 0.1943 -0.9718 0.1335
vn 0.1136 -0.9848 -0.1312
vn -0.0309 -0.9984 -0.0464
vn -0.1810 -0.9814 0.0641
vn 0.3226 -0.8561 -0.4038
vn 0.2723 -0.9553 -0.1150
vn 0.0082 -0.9774 0.2113
vn 0.0409 0.9987 0.0310
vn -0.4596 0.8881 -0.0115
vn 0.0040 0.9995 0.0329
vn 0.1888 0.9658 -0.1778
vn -0.3389 0.8961 0.2866
vn 0.0213 0.9997 -0.0126
vn 0.0472 0.9986 0.0240
vn -0.3100 0.9074 -0.2838
vn 0.2074 0.9769 0.0506
vn 0.0038 0.9731 -0.2305
vn 0.0032 0.8739 0.4861
vn -0.0477 0.9984 -0.0309
vn -0.1424 0.9698 -0.1981
vn 0.0085 0.8723 -0.4889
vn 0.0702 0.9803 0.1844
vn -0.0646 0.9763 -0.2065
vn 0.2874 0.9076 0.3061
vn 0.0015 0.9989 -0.0478
vn -0.1787 0.9717 0.1547
vn -0.2079 0.9774 -0.0369
vn 0.4619 0.8867 0.0207
vn -0.0299 0.9995 0.0055
vn -0.1990 0.9713 0.1301
vn 0.3402 0.8560 -0.3893
vn 0.2433 0.9678 -0.0648
vn 0.0289 0.9756 0.2175
vn 0.8389 0.5443 -0.0019
vn 0.8542 0.5199 -0.0023
vn 0.8558 0.5174 -0.0009
vn 0.8545 0.5194 -0.0010
vn -0.9045 0.4265 -0.0034
vn -0.8362 0.5483 0.0134
vn -0.8179 0.5753 -0.0102
vn -0.7105 0.7037 -0.0041
vn -0.0325 0.4222 -0.9059
vn -0.0399 0.4864 -0.8728
vn -0.0298 0.4934 -0.8693
vn -0.0281 0.5865 -0.8095
vn -0.6851 -0.7285 -0.0020
vn -0.5228 -0.8522 0.0199
vn -0.5109 -0.8596 -0.0055
vn -0.4904 -0.8715 0.0013
vn -0.4303 -0.1586 -0.8886
vn -0.3728 -0.2159 -0.9024
vn -0.3555 -0.2167 -0.9092
vn -0.2818 -0.1644 -0.9453
vn -0.5788 0.5018 -0.6428
vn -0.5949 0.4963 -0.6324
vn -0.5210 0.6445 -0.5597
vn -0.6394 0.3492 -0.6850
vn -0.3159 -0.3032 0.8990
vn -0.3235 -0.2815 0.9034
vn -0.3185 -0.3259 0.8902
vn 0.0003 0.6063 0.7952
vn -0.0017 0.5811 0.8138
vn 0.0013 0.5810 0.8139
vn -0.0000 0.5808 0.8141
vn 0.6560 0.4912 0.5730
vn 0.6556 0.4922 0.5727
vn 0.6591 0.4855 0.5743
vn 0.6490 0.5083 0.5661
usemtl mat0.002
s 1
f 1/1/1 2/2/2 3/3/3
f 2/2/2 1/1/1 4/4/4
f 5/5/5 3/3/3 2/2/2
f 5/5/5 6/6/6 3/3/3
f 2/2/2 7/7/7 5/5/5
f 4/4/4 7/7/7 2/2/2
f 7/7/7 4/4/4 8/8/8
f 9/9/9 6/6/6 5/5/5
f 6/6/6 9/9/9 10/10/10
f 5/5/5 11/11/11 9/9/9
f 11/11/11 5/5/5 12/12/12
f 5/5/5 7/7/7 12/12/12
f 8/8/8 13/13/13 7/7/7
f 7/7/7 13/13/13 12/12/12
f 13/13/13 8/8/8 14/14/14
f 12/12/12 15/15/15 11/11/11
f 15/15/15 12/12/12 16/16/16
f 12/12/12 13/13/13 16/16/16
f 13/13/13 17/17/17 16/16/16
f 14/14/14 18/18/18 13/13/13
f 13/13/13 18/18/18 17/17/17
f 18/18/18 14/14/14 19/19/19
f 20/20/20 16/16/16 17/17/17
f 16/16/16 20/20/20 15/15/15
f 17/17/17 21/21/21 20/20/20
f 21/21/21 17/17/17 22/22/22
f 22/22/22 17/17/17 18/18/18
f 19/19/19 23/23/23 18/18/18
f 22/22/22 18/18/18 23/23/23
f 23/23/23 19/19/19 24/24/24
f 22/22/22 25/25/25 21/21/21
f 25/25/25 22/22/22 26/26/26
f 24/24/24 27/27/27 23/23/23
f 22/22/22 27/27/27 26/26/26
f 23/23/23 27/27/27 22/22/22
f 27/27/27 24/24/24 28/28/28
f 26/26/26 29/29/29 25/25/25
f 29/29/29 26/26/26 30/30/30
f 30/30/30 26/26/26 27/27/27
f 28/28/28 31/31/31 27/27/27
f 27/27/27 31/31/31 30/30/30
f 31/31/31 28/28/28 32/32/32
f 30/30/30 33/33/33 29/29/29
f 33/33/33 30/30/30 34/34/34
f 31/31/31 34/34/34 30/30/30
f 31/31/31 35/35/35 34/34/34
f 32/32/32 35/35/35 31/31/31
f 35/35/35 32/32/32 36/36/36
f 37/37/37 38/38/38 39/39/39
f 39/39/39 38/38/38 40/40/40
f 40/40/40 41/41/41 39/39/39
f 42/42/42 40/40/40 38/38/38
f 41/41/41 40/40/40 43/43/43
f 43/43/43 44/44/44 41/41/41
f 45/45/45 43/43/43 40/40/40
f 40/40/40 42/42/42 45/45/45
f 44/44/44 43/43/43 46/46/46
f 46/46/46 47/47/47 44/44/44
f 43/43/43 45/45/45 48/48/48
f 48/48/48 46/46/46 43/43/43
f 47/47/47 46/46/46 49/49/49
f 49/49/49 50/50/50 47/47/47
f 51/51/51 49/49/49 46/46/46
f 46/46/46 48/48/48 51/51/51
f 50/50/50 49/49/49 52/52/52
f 52/52/52 53/53/53 50/50/50
f 49/49/49 51/51/51 54/54/54
f 54/54/54 52/52/52 49/49/49
f 53/53/53 52/52/52 55/55/55
f 55/55/55 56/56/56 53/53/53
f 57/57/57 55/55/55 52/52/52
f 52/52/52 54/54/54 57/57/57
f 56/56/56 55/55/55 58/58/58
f 58/58/58 59/59/59 56/56/56
f 55/55/55 57/57/57 60/60/60
f 60/60/60 58/58/58 55/55/55
f 59/59/59 58/58/58 61/61/61
f 62/62/62 61/61/61 58/58/58
f 58/58/58 60/60/60 62/62/62
f 61/61/61 62/62/62 63/63/63
f 64/64/64 65/65/65 66/66/66
f 65/65/67 67/67/68 68/68/69
f 68/68/69 69/69/70 65/65/67
f 69/69/70 68/68/69 70/70/71
f 70/70/71 71/71/72 69/69/70
f 71/71/72 70/70/71 72/72/73
f 72/72/73 73/73/74 71/71/72
f 73/73/74 72/72/73 74/74/75
f 74/74/75 75/75/76 73/73/74
f 75/75/76 74/74/75 76/76/77
f 76/76/77 77/77/78 75/75/76
f 77/77/78 76/76/77 78/78/79
f 78/78/79 79/79/80 77/77/78
f 79/79/80 78/78/79 80/80/81
f 80/80/81 81/81/82 79/79/80
f 81/81/82 80/80/81 82/82/83
f 83/83/84 84/84/84 85/85/84
f 83/83/84 86/86/84 84/84/84
f 86/86/84 83/83/84 87/87/84
f 88/88/84 84/84/84 89/89/84
f 87/87/84 90/90/84 86/86/84
f 90/90/84 87/87/84 91/91/84
f 91/91/84 92/92/84 90/90/84
f 92/92/84 91/91/84 93/93/84
f 93/93/84 94/94/84 92/92/84
f 94/94/84 93/93/84 95/95/85
f 95/95/85 96/96/84 94/94/84
f 96/96/84 95/95/85 97/97/84
f 97/97/84 98/98/84 96/96/84
f 98/98/84 97/97/84 99/99/84
f 99/99/84 100/100/84 98/98/84
f 100/100/84 99/99/84 101/101/84
f 102/102/86 103/103/87 104/104/88
f 103/103/89 105/105/90 106/106/91
f 106/106/91 107/107/92 103/103/89
f 107/107/92 106/106/91 108/108/93
f 108/108/93 109/109/94 107/107/92
f 109/109/94 108/108/93 110/110/95
f 110/110/95 111/111/96 109/109/94
f 111/111/96 110/110/95 112/112/97
f 112/112/97 113/113/98 111/111/96
f 113/113/98 112/112/97 114/114/99
f 114/114/99 115/115/100 113/113/98
f 115/115/100 114/114/99 116/116/101
f 116/116/101 117/117/102 115/115/100
f 117/117/102 116/116/101 118/118/103
f 118/118/103 119/119/104 117/117/102
f 119/119/104 118/118/103 120/120/105
f 121/121/106 122/122/107 123/123/108
f 124/124/109 125/125/110 126/126/111
f 127/127/112 126/126/111 125/125/110
f 128/128/113 129/129/114 130/130/115
f 128/128/113 131/131/116 129/129/114
f 132/132/117 133/133/118 134/134/119
f 132/132/117 135/135/120 133/133/118
f 136/136/121 137/137/122 138/138/123
f 139/139/124 138/138/123 137/137/122
f 140/140/125 141/141/126 142/142/127
f 142/142/127 141/141/126 143/143/128
f 141/141/126 144/144/129 143/143/128
f 145/145/130 146/146/131 147/147/132
f 145/145/130 148/148/133 146/146/131
f 149/149/134 148/148/133 150/150/135
f 151/151/136 152/152/137 153/153/138
f 152/152/137 151/151/136 154/154/139
f 155/155/140 156/156/141 157/157/142
f 155/155/140 158/158/143 156/156/141
f 159/159/144 160/160/145 161/161/146
f 160/160/145 159/159/144 162/162/147
f 163/163/148 164/164/149 165/165/150
f 165/165/150 164/164/149 166/166/151
f 167/167/152 168/168/153 169/169/154
f 169/169/154 168/168/153 170/170/155
f 171/171/156 172/172/157 173/173/158
f 173/173/158 172/172/157 174/174/159
f 175/175/160 176/176/161 177/177/162
f 177/177/162 176/176/161 178/178/163
f 179/179/164 180/180/165 181/181/166
f 180/180/165 179/179/164 182/182/167
f 183/183/168 184/184/169 185/185/170
f 185/185/170 184/184/169 186/186/171
f 187/187/172 188/188/173 189/189/174
f 189/189/174 188/188/173 190/190/175
f 191/191/176 192/192/177 193/193/178
f 192/192/177 191/191/176 194/194/179
f 195/195/180 196/196/181 197/197/182
f 197/197/182 196/196/181 198/198/183
f 199/199/184 200/200/185 201/201/186
f 201/201/186 200/200/185 202/202/187
f 203/203/188 204/204/189 205/205/190
f 204/204/189 203/203/188 206/206/191
f 207/207/192 208/208/193 209/209/194
f 209/209/194 208/208/193 210/210/195
f 211/211/196 212/212/197 213/213/198
f 213/213/198 212/212/197 214/214/199
f 215/215/200 216/216/201 217/217/202
f 216/216/201 215/215/200 218/218/203
f 219/219/204 220/220/205 221/221/206
f 220/220/205 219/219/204 222/222/207
f 223/223/208 224/224/209 225/225/210
f 226/226/211 224/224/209 223/223/208
f 227/227/212 228/228/213 229/229/214
f 229/229/214 228/228/213 230/230/215
f 231/231/216 232/232/217 233/233/218
f 232/232/217 234/234/219 233/233/218
f 235/235/220 236/236/221 237/237/222
f 238/238/223 236/236/221 235/235/220
f 239/239/224 240/240/225 241/241/226
f 240/240/225 242/242/227 241/241/226
f 243/243/228 244/244/229 245/245/230
f 246/246/231 244/244/229 243/243/228
f 247/247/232 248/248/233 249/249/234
f 249/249/234 248/248/233 250/250/235
f 251/251/236 252/252/237 253/253/238
f 251/251/236 254/254/239 252/252/237
f 255/255/240 256/256/241 257/257/242
f 257/257/242 256/256/241 258/258/243
f 259/259/244 260/260/245 261/261/246
f 259/259/244 262/262/247 260/260/245
f 263/263/248 264/264/249 265/265/250
f 265/265/250 264/264/249 266/266/251
f 267/267/252 268/268/253 269/269/254
f 270/270/255 268/268/253 267/267/252
f 271/271/256 272/272/257 273/273/258
f 274/274/259 275/275/260 276/276/261
f 277/277/262 278/278/263 279/279/264
f 280/280/265 281/281/266 282/282/267
f 283/283/268 284/284/269 285/285/270
f 286/286/271 287/287/272 288/288/273
f 289/289/274 290/290/275 291/291/276
f 292/292/277 293/293/278 294/294/279
f 295/295/280 296/296/281 297/297/282
f 296/296/281 295/295/280 298/298/283
f 299/299/284 300/300/285 301/301/286
f 300/300/285 302/302/287 301/301/286
f 303/303/288 304/304/289 305/305/290
f 305/305/290 304/304/289 306/306/291
f 307/307/292 308/308/293 309/309/294
f 310/310/295 309/309/294 308/308/293
f 311/311/296 312/312/297 313/313/298
f 312/312/297 311/311/296 314/314/299
f 315/315/300 313/313/298 312/312/297
f 316/316/301 312/312/297 317/317/302
f 318/318/303 312/312/297 314/314/299
f 317/317/302 312/312/297 318/318/303
f 318/318/303 319/319/304 317/317/302
f 320/320/305 317/317/302 319/319/304
f 321/321/306 317/317/302 320/320/305
f 322/322/307 317/317/302 321/321/306
f 321/321/306 320/320/305 323/323/308
f 324/324/309 321/321/306 325/325/310
f 323/323/308 326/326/311 321/321/306
f 325/325/310 321/321/306 326/326/311
f 327/327/312 325/325/310 328/328/313
f 328/328/313 325/325/310 329/329/314
f 325/325/310 326/326/311 330/330/315
f 329/329/314 325/325/310 330/330/315
f 331/331/316 332/332/317 333/333/318
f 334/334/319 333/333/318 335/335/320
f 335/335/320 333/333/318 336/336/321
f 332/332/317 336/336/321 333/333/318
f 337/337/322 338/338/323 339/339/324
f 340/340/325 338/338/323 337/337/322
f 341/341/326 342/342/327 343/343/328
f 344/344/329 345/345/330 346/346/331
f 347/347/332 346/346/331 345/345/330
f 348/348/333 349/349/334 350/350/335
f 348/348/333 351/351/336 349/349/334
f 352/352/337 350/350/335 349/349/334
f 353/353/338 349/349/334 351/351/336
f 354/354/339 355/355/340 356/356/341
f 354/354/339 357/357/342 355/355/340
f 356/356/341 355/355/340 358/358/343
f 359/359/344 356/356/341 358/358/343
f 357/357/342 360/360/345 355/355/340
f 360/360/345 357/357/342 361/361/346
f 361/361/346 362/362/347 360/360/345
f 362/362/347 363/363/348 360/360/345
f 363/363/348 362/362/347 364/364/349
f 364/364/349 365/365/350 363/363/348
f 365/365/350 366/366/351 363/363/348
f 366/366/351 365/365/350 367/367/352
f 367/367/352 368/368/353 366/366/351
f 368/368/353 369/369/354 366/366/351
f 369/369/354 368/368/353 370/370/355
f 370/370/355 371/371/356 369/369/354
f 371/371/356 372/372/357 369/369/354
f 372/372/357 371/371/356 373/373/358
f 373/373/358 374/374/359 372/372/357
f 374/374/359 375/375/360 372/372/357
f 375/375/360 374/374/359 376/376/361
f 376/376/361 377/377/362 375/375/360
f 377/377/362 378/378/363 375/375/360
f 378/378/363 377/377/362 379/379/364
f 380/380/365 381/381/366 382/382/367
f 383/383/368 381/381/366 380/380/365
f 380/380/365 384/384/369 383/383/368
f 384/384/369 380/380/365 385/385/370
f 386/386/371 382/382/367 387/387/372
f 382/382/367 381/381/366 388/388/373
f 388/388/373 387/387/372 382/382/367
f 389/389/374 384/384/369 385/385/370
f 385/385/370 390/390/375 389/389/374
f 390/390/375 385/385/370 391/391/376
f 392/392/377 386/386/371 393/393/378
f 394/394/379 393/393/378 386/386/371
f 386/386/371 387/387/372 394/394/379
f 395/395/380 390/390/375 391/391/376
f 391/391/376 396/396/381 395/395/380
f 396/396/381 391/391/376 397/397/382
f 392/392/377 393/393/378 398/398/383
f 399/399/384 396/396/381 397/397/382
f 397/397/382 400/400/385 399/399/384
f 400/400/385 397/397/382 401/401/386
f 402/402/387 400/400/385 401/401/386
f 401/401/386 403/403/388 402/402/387
f 403/403/388 401/401/386 404/404/389
f 405/405/390 403/403/388 404/404/389
f 406/406/391 407/407/392 408/408/393
f 409/409/394 408/408/393 407/407/392
f 410/410/395 411/411/396 412/412/397
f 413/413/398 412/412/397 411/411/396
f 414/414/399 415/415/400 416/416/401
f 415/415/400 417/417/402 416/416/401
f 418/418/403 419/419/404 420/420/405
f 420/420/405 419/419/404 421/421/406
f 422/422/407 423/423/408 424/424/409
f 423/423/408 425/425/410 424/424/409
f 426/426/411 427/427/412 428/428/413
f 429/429/414 427/427/412 426/426/411
f 430/430/415 431/431/416 432/432/417
f 433/433/418 434/434/419 435/435/420
f 436/436/421 435/435/420 434/434/419
f 437/437/422 438/438/423 439/439/424
f 440/440/425 438/438/423 437/437/422
o Mesh_0016.rip
v -0.032080 0.303926 0.096738
v -0.039966 0.301684 0.088992
v -0.019480 0.308858 0.093979
v -0.017076 0.300787 0.093767
v -0.016306 0.308858 0.088143
v -0.019480 0.307513 0.082413
v -0.031983 0.302132 0.080821
v -0.016979 0.299890 0.084641
v 0.019761 0.300787 0.093767
v 0.034765 0.303926 0.096738
v 0.042652 0.301684 0.088992
v 0.022262 0.308858 0.093979
v 0.019665 0.299890 0.084641
v 0.034669 0.302132 0.080821
v 0.022166 0.307513 0.082413
v 0.018992 0.308858 0.088143
v 0.001391 0.084208 0.093873
v -0.003226 0.120528 0.092175
v -0.003226 0.120080 0.086976
v 0.001391 0.120977 0.094828
v 0.005911 0.120528 0.092175
v 0.005911 0.120080 0.086976
v 0.001391 0.119632 0.084323
v -0.003226 0.120080 0.086976
v -0.011016 0.315136 0.059280
v -0.011016 0.316930 0.073500
v 0.001391 0.317827 0.080609
v 0.013702 0.316930 0.073500
v 0.013702 0.315136 0.059280
v 0.001391 0.314239 0.052277
v -0.011016 0.315136 0.059280
v -0.003610 0.325001 0.062464
v -0.003610 0.325449 0.068194
v 0.001391 0.325898 0.070953
v 0.006296 0.325449 0.068194
v 0.006296 0.325001 0.062464
v 0.001391 0.324553 0.059705
v -0.003610 0.325001 0.062464
v -0.006688 0.360873 0.056415
v 0.001391 0.348318 0.043469
v -0.015056 0.349663 0.052913
v 0.001391 0.359977 0.051852
v 0.001391 0.362667 0.060872
v -0.015056 0.334866 0.054611
v 0.001391 0.333521 0.045167
v 0.017838 0.334866 0.054611
v 0.017838 0.349663 0.052913
v 0.009374 0.360873 0.056415
v 0.009374 0.361770 0.065647
v 0.001391 0.362219 0.070210
v -0.006688 0.361770 0.065647
v -0.006688 0.360873 0.056415
v -0.003610 0.325001 0.062464
v 0.001391 0.324553 0.059705
v 0.006296 0.325001 0.062464
v 0.006296 0.325449 0.068194
v 0.017838 0.337108 0.073500
v 0.017838 0.351905 0.071696
v 0.001391 0.352802 0.081140
v -0.015056 0.351905 0.071696
v -0.015056 0.349663 0.052913
v 0.001391 0.325898 0.070953
v 0.001391 0.338005 0.082944
v -0.015056 0.337108 0.073500
v -0.015056 0.334866 0.054611
v -0.003610 0.325449 0.068194
v -0.003610 0.325001 0.062464
v -0.011882 0.104834 0.108092
v -0.001975 0.123219 0.105334
v 0.001583 0.119632 0.101301
v -0.011882 0.104834 0.108092
v 0.005238 0.116941 0.106076
v 0.014279 0.126806 0.104485
v 0.009278 0.128151 0.099179
v 0.004950 0.131739 0.103954
v 0.009951 0.130393 0.109366
v -0.011882 0.104834 0.108092
v 0.001776 0.120977 0.110321
v 0.013125 0.142949 0.106395
v 0.018415 0.141155 0.100665
v 0.012259 0.139810 0.095677
v 0.006969 0.141603 0.101407
v 0.004950 0.131739 0.103954
v 0.006969 0.141603 0.101407
v -0.011882 0.104834 0.108092
v -0.001975 0.123219 0.105334
v 0.005142 0.148330 0.099179
v 0.011105 0.152365 0.103848
v 0.016106 0.153262 0.096951
v 0.010143 0.149675 0.092282
v 0.005142 0.148330 0.099179
v 0.005142 0.148330 0.099179
v -0.011978 0.177476 0.090478
v 0.010143 0.149675 0.092282
v -0.016498 0.173889 0.098542
v 0.016106 0.153262 0.096951
v -0.003995 0.180166 0.096314
v -0.006015 0.191825 0.100346
v -0.015537 0.193618 0.095571
v -0.020634 0.190480 0.104379
v 0.011105 0.152365 0.103848
v -0.008516 0.176579 0.104379
v -0.011112 0.188686 0.109154
v -0.008227 0.203932 0.115308
v -0.003322 0.203483 0.104485
v -0.012555 0.209313 0.100771
v -0.017460 0.209761 0.111594
v 0.005142 0.148330 0.099179
v -0.016498 0.173889 0.098542
v -0.020634 0.190480 0.104379
v -0.017460 0.209761 0.111594
v -0.017460 0.209761 0.111594
v 0.022743 0.242046 0.098861
v -0.012555 0.209313 0.100771
v 0.020723 0.246530 0.111700
v -0.003322 0.203483 0.104485
v 0.032072 0.233078 0.103530
v 0.053713 0.253256 0.096102
v 0.040921 0.260431 0.091751
v 0.039959 0.267157 0.105334
v -0.008227 0.203932 0.115308
v 0.029956 0.237562 0.116475
v 0.052847 0.259982 0.109790
v -0.017460 0.209761 0.111594
v 0.020723 0.246530 0.111700
v 0.039959 0.267157 0.105334
v 0.039959 0.267157 0.105334
v 0.048038 0.277022 0.085809
v 0.040921 0.260431 0.091751
v 0.045634 0.281954 0.101407
v 0.053713 0.253256 0.096102
v 0.064870 0.276125 0.087613
v 0.059291 0.299442 0.081352
v 0.044383 0.289129 0.081352
v 0.043229 0.290474 0.098118
v 0.052847 0.259982 0.109790
v 0.062465 0.281057 0.103211
v 0.058233 0.300339 0.098224
v 0.045826 0.312446 0.089310
v 0.044191 0.308410 0.081140
v 0.037843 0.296303 0.080609
v 0.035439 0.293164 0.088355
v 0.037074 0.296751 0.096526
v 0.039959 0.267157 0.105334
v 0.045634 0.281954 0.101407
v 0.043229 0.290474 0.098118
v 0.037074 0.296751 0.096526
v 0.043421 0.308858 0.097057
v 0.014568 0.103489 0.095889
v 0.000622 0.119183 0.092282
v 0.004661 0.122322 0.096632
v -0.002264 0.130842 0.097163
v -0.008035 0.129048 0.092494
v -0.011497 0.125909 0.098118
v -0.002456 0.116044 0.097375
v 0.014568 0.103489 0.095889
v -0.004476 0.142052 0.101513
v -0.011497 0.143845 0.097799
v -0.015537 0.140707 0.103954
v -0.008419 0.139361 0.107668
v -0.005823 0.127703 0.102681
v 0.001583 0.119632 0.101301
v 0.014568 0.103489 0.095889
v -0.002456 0.150572 0.105652
v -0.009381 0.154607 0.102787
v -0.013325 0.154159 0.110745
v -0.006400 0.149675 0.113504
v -0.002456 0.150572 0.105652
v -0.004476 0.142052 0.101513
v -0.002264 0.130842 0.097163
v 0.004661 0.122322 0.096632
v 0.014568 0.103489 0.095889
v -0.002456 0.150572 0.105652
v 0.009662 0.178821 0.103742
v 0.018607 0.175234 0.107668
v -0.009381 0.154607 0.102787
v 0.022551 0.189583 0.101407
v 0.011875 0.188686 0.099073
v 0.009470 0.193170 0.108517
v 0.007258 0.181960 0.113186
v -0.013325 0.154159 0.110745
v 0.019473 0.207071 0.092282
v 0.009182 0.200793 0.092388
v 0.006777 0.203932 0.103211
v 0.017068 0.210209 0.103105
v 0.020146 0.194067 0.110851
v 0.016203 0.177924 0.117112
v -0.006400 0.149675 0.113504
v 0.019473 0.207071 0.092282
v 0.022551 0.189583 0.101407
v 0.018607 0.175234 0.107668
v -0.002456 0.150572 0.105652
v 0.009182 0.200793 0.092388
v -0.028232 0.231733 0.080715
v 0.019473 0.207071 0.092282
v -0.028617 0.233078 0.094510
v 0.006777 0.203932 0.103211
v -0.018711 0.241598 0.080079
v -0.051315 0.255050 0.080927
v -0.049777 0.254153 0.096102
v -0.036985 0.262673 0.095359
v -0.019095 0.242943 0.093873
v 0.017068 0.210209 0.103105
v -0.038524 0.263570 0.080291
v -0.038524 0.263570 0.080291
v -0.018711 0.241598 0.080079
v 0.019473 0.207071 0.092282
v -0.038524 0.263570 0.080291
v -0.061511 0.277918 0.082201
v -0.044583 0.279264 0.080397
v -0.051315 0.255050 0.080927
v -0.042082 0.289577 0.080927
v -0.056990 0.299442 0.081776
v -0.055066 0.300339 0.098648
v -0.060453 0.277470 0.098436
v -0.049777 0.254153 0.096102
v -0.035157 0.296303 0.080609
v -0.041505 0.308410 0.081140
v -0.043044 0.312446 0.089310
v -0.040736 0.308858 0.097057
v -0.034388 0.296751 0.096526
v -0.040255 0.290025 0.097693
v -0.043525 0.278815 0.096632
v -0.036985 0.262673 0.095359
v -0.032753 0.293164 0.088355
v -0.042082 0.289577 0.080927
v -0.044583 0.279264 0.080397
v -0.038524 0.263570 0.080291
v -0.035157 0.296303 0.080609
v -0.016979 0.299890 0.084641
v -0.035157 0.296303 0.080609
v -0.031983 0.302132 0.080821
v -0.020634 0.296751 0.089629
v -0.017076 0.300787 0.093767
v -0.019480 0.307513 0.082413
v -0.027174 0.311549 0.079654
v -0.041505 0.308410 0.081140
v -0.032753 0.293164 0.088355
v -0.034388 0.296751 0.096526
v -0.032080 0.303926 0.096738
v -0.016306 0.308858 0.088143
v -0.021500 0.312446 0.081776
v -0.020057 0.314688 0.087400
v -0.027559 0.315584 0.087188
v -0.043044 0.312446 0.089310
v -0.040736 0.308858 0.097057
v -0.027271 0.313342 0.095571
v -0.019480 0.308858 0.093979
v -0.021596 0.314239 0.093343
v 0.034765 0.303926 0.096738
v 0.019761 0.300787 0.093767
v 0.037074 0.296751 0.096526
v 0.023320 0.296751 0.089629
v 0.019665 0.299890 0.084641
v 0.022262 0.308858 0.093979
v 0.029956 0.313342 0.095571
v 0.043421 0.308858 0.097057
v 0.035439 0.293164 0.088355
v 0.037843 0.296303 0.080609
v 0.034669 0.302132 0.080821
v 0.018992 0.308858 0.088143
v 0.024282 0.314239 0.093343
v 0.030245 0.315584 0.087188
v 0.045826 0.312446 0.089310
v 0.044191 0.308410 0.081140
v 0.029860 0.311549 0.079654
v 0.022166 0.307513 0.082413
v 0.024282 0.312446 0.081776
v 0.022839 0.314688 0.087400
v 0.050731 0.421856 0.053020
v 0.056213 0.420511 0.051534
v 0.017838 0.385087 0.058219
v 0.064966 0.455935 0.048244
v 0.016780 0.372532 0.059917
v 0.026398 0.383742 0.055672
v 0.050346 0.404369 0.055460
v 0.059868 0.419614 0.053338
v 0.065639 0.430376 0.051852
v 0.068524 0.442035 0.050155
v 0.023705 0.357735 0.062039
v 0.025724 0.372083 0.057476
v 0.033804 0.382845 0.058431
v 0.055444 0.367599 0.060660
v 0.068140 0.398091 0.056309
v 0.065639 0.406611 0.055142
v 0.068813 0.418269 0.053444
v 0.022839 0.331279 0.065753
v 0.034958 0.329037 0.064480
v 0.030053 0.359528 0.060235
v 0.034188 0.372083 0.060023
v 0.041402 0.363115 0.061296
v 0.061792 0.349663 0.063206
v 0.012163 0.314239 0.068194
v 0.020338 0.308858 0.068937
v 0.046499 0.327243 0.066284
v 0.047461 0.351457 0.062888
v 0.055733 0.325001 0.066602
v 0.011586 0.299890 0.070210
v 0.029187 0.303029 0.069679
v 0.068524 0.442035 0.050155
v 0.064966 0.455935 0.048244
v 0.056213 0.420960 0.054824
v 0.050731 0.421856 0.053020
v 0.065639 0.430376 0.051852
v 0.059868 0.419614 0.053338
v 0.050346 0.404369 0.055460
v 0.026398 0.384190 0.060978
v 0.017838 0.385087 0.058219
v 0.068813 0.418269 0.053444
v 0.065639 0.406611 0.055142
v 0.068140 0.398091 0.056309
v 0.055444 0.367599 0.060660
v 0.033804 0.382845 0.058431
v 0.025724 0.372532 0.062464
v 0.016780 0.372532 0.059917
v 0.041402 0.363115 0.061296
v 0.034188 0.372083 0.060023
v 0.061792 0.349663 0.063206
v 0.030053 0.359977 0.063313
v 0.023705 0.357735 0.062039
v 0.047461 0.351457 0.062888
v 0.055733 0.325001 0.066602
v 0.046499 0.327243 0.066284
v 0.034958 0.329485 0.067557
v 0.022839 0.331279 0.065753
v 0.029187 0.303029 0.069679
v 0.020338 0.308858 0.068937
v 0.012163 0.314239 0.068194
v 0.011586 0.299890 0.070210
v -0.050738 0.421856 0.053020
v -0.056221 0.420511 0.051534
v -0.064973 0.455935 0.048244
v -0.017845 0.385087 0.058219
v -0.068532 0.442035 0.050155
v -0.065646 0.430376 0.051852
v -0.059875 0.419614 0.053338
v -0.050257 0.404369 0.055460
v -0.026405 0.383742 0.055672
v -0.016787 0.372532 0.059917
v -0.068820 0.418269 0.053444
v -0.065646 0.406611 0.055142
v -0.068147 0.398091 0.056309
v -0.055451 0.367599 0.060660
v -0.033811 0.382845 0.058431
v -0.025732 0.372083 0.057476
v -0.023712 0.357735 0.062039
v -0.041313 0.363115 0.061296
v -0.034195 0.372083 0.060023
v -0.061799 0.349663 0.063206
v -0.030060 0.359528 0.060235
v -0.034965 0.329037 0.064480
v -0.022846 0.331279 0.065753
v -0.047372 0.351457 0.062888
v -0.055740 0.325001 0.066602
v -0.046506 0.327243 0.066284
v -0.020346 0.308858 0.068937
v -0.012170 0.314239 0.068194
v -0.029194 0.303029 0.069679
v -0.011593 0.299890 0.070210
v -0.017845 0.385087 0.058219
v -0.050738 0.421856 0.053020
v -0.056221 0.420960 0.054824
v -0.064973 0.455935 0.048244
v -0.016787 0.372532 0.059917
v -0.026405 0.384190 0.060978
v -0.050257 0.404369 0.055460
v -0.059875 0.419614 0.053338
v -0.065646 0.430376 0.051852
v -0.068532 0.442035 0.050155
v -0.023712 0.357735 0.062039
v -0.025732 0.372532 0.062464
v -0.033811 0.382845 0.058431
v -0.055451 0.367599 0.060660
v -0.068147 0.398091 0.056309
v -0.065646 0.406611 0.055142
v -0.068820 0.418269 0.053444
v -0.022846 0.331279 0.065753
v -0.034965 0.329485 0.067557
v -0.030060 0.359977 0.063313
v -0.034195 0.372083 0.060023
v -0.041313 0.363115 0.061296
v -0.061799 0.349663 0.063206
v -0.012170 0.314239 0.068194
v -0.020346 0.308858 0.068937
v -0.046506 0.327243 0.066284
v -0.047372 0.351457 0.062888
v -0.055740 0.325001 0.066602
v -0.011593 0.299890 0.070210
v -0.029194 0.303029 0.069679
vt 0.8257 -0.0757
vt 0.7417 -0.0034
vt 0.8027 -0.1895
vt 0.7905 -0.2119
vt 0.7417 -0.2188
vt 0.6812 -0.1904
vt 0.6577 -0.0762
vt 0.6938 -0.2124
vt 0.7905 -0.2119
vt 0.8257 -0.0757
vt 0.7417 -0.0034
vt 0.8027 -0.1895
vt 0.6938 -0.2124
vt 0.6577 -0.0762
vt 0.6812 -0.1904
vt 0.7417 -0.2188
vt 0.9282 -0.9995
vt 0.8564 -0.8706
vt 0.8276 -0.8706
vt 0.8853 -0.8706
vt 0.9141 -0.8706
vt 0.9424 -0.8706
vt 0.9712 -0.8706
vt 1.0000 -0.8706
vt 0.8276 -0.1689
vt 0.8564 -0.1689
vt 0.8853 -0.1689
vt 0.9141 -0.1689
vt 0.9424 -0.1689
vt 0.9712 -0.1689
vt 1.0000 -0.1689
vt 0.8276 -0.1353
vt 0.8564 -0.1353
vt 0.8853 -0.1353
vt 0.9141 -0.1353
vt 0.9424 -0.1353
vt 0.9712 -0.1353
vt 1.0000 -0.1353
vt 1.0000 -0.0063
vt 0.9712 -0.0439
vt 1.0000 -0.0439
vt 0.9712 -0.0063
vt 0.9282 -0.0005
vt 1.0000 -0.0977
vt 0.9712 -0.0977
vt 0.9424 -0.0977
vt 0.9424 -0.0439
vt 0.9424 -0.0063
vt 0.9141 -0.0063
vt 0.8853 -0.0063
vt 0.8564 -0.0063
vt 0.8276 -0.0063
vt 1.0000 -0.1353
vt 0.9712 -0.1353
vt 0.9424 -0.1353
vt 0.9141 -0.1353
vt 0.9141 -0.0977
vt 0.9141 -0.0439
vt 0.8853 -0.0439
vt 0.8564 -0.0439
vt 0.8276 -0.0439
vt 0.8853 -0.1353
vt 0.8853 -0.0977
vt 0.8564 -0.0977
vt 0.8276 -0.0977
vt 0.8564 -0.1353
vt 0.8276 -0.1353
vt 0.0000 -0.9995
vt 0.0000 -0.8384
vt 0.2056 -0.8384
vt 0.2056 -0.9995
vt 0.4102 -0.8384
vt 0.4102 -0.6782
vt 0.2056 -0.6782
vt 0.0000 -0.6782
vt 0.6147 -0.6782
vt 0.4102 -0.9995
vt 0.6147 -0.8384
vt 0.6147 -0.5518
vt 0.4102 -0.5518
vt 0.2056 -0.5518
vt 0.0000 -0.5518
vt 0.8198 -0.6782
vt 0.8198 -0.5518
vt 0.6147 -0.9995
vt 0.8198 -0.8384
vt 0.8198 -0.4180
vt 0.6147 -0.4180
vt 0.4102 -0.4180
vt 0.2056 -0.4180
vt 0.0000 -0.4180
vt 0.0000 -0.9995
vt 0.2056 -0.6729
vt 0.2056 -0.9995
vt 0.0000 -0.6729
vt 0.4102 -0.9995
vt 0.4102 -0.6729
vt 0.4102 -0.5464
vt 0.2056 -0.5464
vt 0.0000 -0.5464
vt 0.6147 -0.9995
vt 0.6147 -0.6729
vt 0.6147 -0.5464
vt 0.6147 -0.4180
vt 0.4102 -0.4180
vt 0.2056 -0.4180
vt 0.0000 -0.4180
vt 0.8198 -0.9995
vt 0.8198 -0.6729
vt 0.8198 -0.5464
vt 0.8198 -0.4180
vt 0.0000 -0.9995
vt 0.2056 -0.6333
vt 0.2056 -0.9995
vt 0.0000 -0.6333
vt 0.4102 -0.9995
vt 0.4102 -0.6333
vt 0.4102 -0.4180
vt 0.2056 -0.4180
vt 0.0000 -0.4180
vt 0.6147 -0.9995
vt 0.6147 -0.6333
vt 0.6147 -0.4180
vt 0.8198 -0.9995
vt 0.8198 -0.6333
vt 0.8198 -0.4180
vt 0.0000 -0.9995
vt 0.2056 -0.7534
vt 0.2056 -0.9995
vt 0.0000 -0.7534
vt 0.4102 -0.9995
vt 0.4102 -0.7534
vt 0.4102 -0.5659
vt 0.2056 -0.5659
vt 0.0000 -0.5659
vt 0.6152 -0.9995
vt 0.6152 -0.7534
vt 0.6152 -0.5659
vt 0.5127 -0.4531
vt 0.4419 -0.4531
vt 0.2056 -0.4531
vt 0.0923 -0.4531
vt 0.0186 -0.4531
vt 0.8198 -0.9995
vt 0.8198 -0.7534
vt 0.8198 -0.5659
vt 0.8198 -0.4531
vt 0.6353 -0.4531
vt 0.0000 -0.9995
vt 0.2056 -0.8384
vt 0.0000 -0.8384
vt 0.0000 -0.6777
vt 0.2056 -0.6777
vt 0.4102 -0.6777
vt 0.4102 -0.8384
vt 0.2056 -0.9995
vt 0.0000 -0.5513
vt 0.2056 -0.5513
vt 0.4102 -0.5513
vt 0.6147 -0.5513
vt 0.6147 -0.6777
vt 0.6147 -0.8384
vt 0.4102 -0.9995
vt 0.0000 -0.4180
vt 0.2056 -0.4180
vt 0.4102 -0.4180
vt 0.6147 -0.4180
vt 0.8198 -0.4180
vt 0.8198 -0.5513
vt 0.8198 -0.6777
vt 0.8198 -0.8384
vt 0.6147 -0.9995
vt 0.0000 -0.9995
vt 0.2056 -0.6753
vt 0.0000 -0.6753
vt 0.2056 -0.9995
vt 0.0000 -0.5479
vt 0.2056 -0.5479
vt 0.4102 -0.5479
vt 0.4102 -0.6753
vt 0.4102 -0.9995
vt 0.0000 -0.4180
vt 0.2056 -0.4180
vt 0.4102 -0.4180
vt 0.6147 -0.4180
vt 0.6147 -0.5479
vt 0.6147 -0.6753
vt 0.6147 -0.9995
vt 0.8198 -0.4180
vt 0.8198 -0.5479
vt 0.8198 -0.6753
vt 0.8198 -0.9995
vt 0.2056 -0.9995
vt 0.2056 -0.6392
vt 0.0000 -0.9995
vt 0.4102 -0.6392
vt 0.4102 -0.9995
vt 0.0000 -0.6392
vt 0.2056 -0.4180
vt 0.4102 -0.4180
vt 0.6147 -0.4180
vt 0.6147 -0.6392
vt 0.6147 -0.9995
vt 0.0000 -0.4180
vt 0.8198 -0.4180
vt 0.8198 -0.6392
vt 0.8198 -0.9995
vt 0.0000 -0.9995
vt 0.2056 -0.7505
vt 0.0000 -0.7505
vt 0.2056 -0.9995
vt 0.0000 -0.5645
vt 0.2056 -0.5645
vt 0.4102 -0.5645
vt 0.4102 -0.7505
vt 0.4102 -0.9995
vt 0.0186 -0.4531
vt 0.2056 -0.4531
vt 0.3081 -0.4531
vt 0.4419 -0.4531
vt 0.6353 -0.4531
vt 0.6152 -0.5645
vt 0.6152 -0.7505
vt 0.6152 -0.9995
vt 0.7173 -0.4531
vt 0.8198 -0.5645
vt 0.8198 -0.7505
vt 0.8198 -0.9995
vt 0.8198 -0.4531
vt 0.0112 -0.1489
vt 0.1875 -0.1763
vt 0.1567 -0.1245
vt 0.0464 -0.1851
vt 0.0117 -0.1484
vt 0.0352 -0.0728
vt 0.1099 -0.0332
vt 0.2490 -0.0635
vt 0.1646 -0.2188
vt 0.1802 -0.1899
vt 0.1577 -0.1240
vt 0.0044 -0.0669
vt 0.0552 -0.0244
vt 0.0410 -0.0117
vt 0.1138 -0.0005
vt 0.2646 -0.0352
vt 0.2417 -0.0771
vt 0.1108 -0.0327
vt 0.0356 -0.0723
vt 0.0562 -0.0239
vt 0.1577 -0.1240
vt 0.0117 -0.1484
vt 0.1802 -0.1899
vt 0.0464 -0.1851
vt 0.0112 -0.1489
vt 0.0356 -0.0723
vt 0.1108 -0.0327
vt 0.2417 -0.0771
vt 0.1646 -0.2188
vt 0.1875 -0.1763
vt 0.1567 -0.1245
vt 0.0044 -0.0669
vt 0.0562 -0.0239
vt 0.1138 -0.0005
vt 0.2646 -0.0352
vt 0.2490 -0.0635
vt 0.1099 -0.0332
vt 0.0352 -0.0728
vt 0.0552 -0.0244
vt 0.0410 -0.0117
vt 0.5728 -0.2212
vt 0.5806 -0.2476
vt 0.3530 -0.1353
vt 0.7402 -0.2271
vt 0.3008 -0.1519
vt 0.3682 -0.1758
vt 0.5034 -0.2485
vt 0.5859 -0.2656
vt 0.6401 -0.2739
vt 0.6929 -0.2671
vt 0.2578 -0.2085
vt 0.3203 -0.1924
vt 0.3809 -0.2109
vt 0.3701 -0.3340
vt 0.5190 -0.3398
vt 0.5469 -0.3140
vt 0.6011 -0.3081
vt 0.1514 -0.2490
vt 0.1709 -0.3066
vt 0.2803 -0.2334
vt 0.3389 -0.2305
vt 0.3198 -0.2783
vt 0.3135 -0.3931
vt 0.0601 -0.2300
vt 0.0576 -0.2754
vt 0.1899 -0.3623
vt 0.2876 -0.3252
vt 0.2017 -0.4077
vt 0.0024 -0.2515
vt 0.0547 -0.3252
vt 0.6929 -0.2671
vt 0.7402 -0.2271
vt 0.5806 -0.2476
vt 0.5728 -0.2212
vt 0.6401 -0.2739
vt 0.5859 -0.2656
vt 0.5034 -0.2485
vt 0.3682 -0.1758
vt 0.3530 -0.1353
vt 0.6011 -0.3081
vt 0.5469 -0.3140
vt 0.5190 -0.3398
vt 0.3701 -0.3340
vt 0.3809 -0.2109
vt 0.3203 -0.1924
vt 0.3008 -0.1519
vt 0.3198 -0.2783
vt 0.3389 -0.2305
vt 0.3135 -0.3931
vt 0.2803 -0.2334
vt 0.2578 -0.2085
vt 0.2876 -0.3252
vt 0.2017 -0.4077
vt 0.1899 -0.3623
vt 0.1709 -0.3066
vt 0.1514 -0.2490
vt 0.0547 -0.3252
vt 0.0576 -0.2754
vt 0.0601 -0.2300
vt 0.0024 -0.2515
vt 0.5728 -0.2212
vt 0.5806 -0.2476
vt 0.7402 -0.2271
vt 0.3530 -0.1353
vt 0.6929 -0.2671
vt 0.6401 -0.2739
vt 0.5859 -0.2656
vt 0.5034 -0.2485
vt 0.3682 -0.1758
vt 0.3008 -0.1519
vt 0.6011 -0.3081
vt 0.5469 -0.3140
vt 0.5190 -0.3398
vt 0.3701 -0.3340
vt 0.3809 -0.2109
vt 0.3203 -0.1924
vt 0.2578 -0.2085
vt 0.3198 -0.2783
vt 0.3389 -0.2305
vt 0.3135 -0.3931
vt 0.2803 -0.2334
vt 0.1709 -0.3066
vt 0.1514 -0.2490
vt 0.2876 -0.3252
vt 0.2017 -0.4077
vt 0.1899 -0.3623
vt 0.0576 -0.2754
vt 0.0601 -0.2300
vt 0.0547 -0.3252
vt 0.0024 -0.2515
vt 0.3530 -0.1353
vt 0.5728 -0.2212
vt 0.5806 -0.2476
vt 0.7402 -0.2271
vt 0.3008 -0.1519
vt 0.3682 -0.1758
vt 0.5034 -0.2485
vt 0.5859 -0.2656
vt 0.6401 -0.2739
vt 0.6929 -0.2671
vt 0.2578 -0.2085
vt 0.3203 -0.1924
vt 0.3809 -0.2109
vt 0.3701 -0.3340
vt 0.5190 -0.3398
vt 0.5469 -0.3140
vt 0.6011 -0.3081
vt 0.1514 -0.2490
vt 0.1709 -0.3066
vt 0.2803 -0.2334
vt 0.3389 -0.2305
vt 0.3198 -0.2783
vt 0.3135 -0.3931
vt 0.0601 -0.2300
vt 0.0576 -0.2754
vt 0.1899 -0.3623
vt 0.2876 -0.3252
vt 0.2017 -0.4077
vt 0.0024 -0.2515
vt 0.0547 -0.3252
vn 0.7087 -0.0489 -0.7038
vn 0.9913 0.1312 -0.0137
vn 0.2882 -0.9545 0.0762
vn 0.0714 0.9811 -0.1800
vn 0.1770 -0.9767 0.1212
vn 0.2877 -0.9442 0.1605
vn 0.7050 0.1194 0.6991
vn 0.0713 0.9955 -0.0625
vn -0.0714 0.9811 -0.1800
vn -0.7087 -0.0489 -0.7038
vn -0.9913 0.1311 -0.0137
vn -0.2882 -0.9545 0.0762
vn -0.0713 0.9955 -0.0625
vn -0.7050 0.1194 0.6991
vn -0.2877 -0.9442 0.1605
vn -0.1770 -0.9767 0.1212
vn 0.0003 -0.9931 0.1176
vn -0.8623 -0.0352 0.5051
vn -0.8625 -0.1507 -0.4831
vn 0.0000 0.0235 0.9997
vn 0.8622 -0.0352 0.5054
vn 0.8625 -0.1507 -0.4831
vn -0.0000 -0.2095 -0.9778
vn -0.8625 -0.1508 -0.4831
vn -0.8244 0.2486 -0.5085
vn -0.8242 0.3601 0.4370
vn 0.0000 0.4168 0.9090
vn 0.8242 0.3601 0.4370
vn 0.8244 0.2486 -0.5085
vn 0.0003 0.1918 -0.9814
vn -0.6394 0.6264 -0.4458
vn -0.6397 0.7128 0.2876
vn -0.0000 0.7569 0.6536
vn 0.6397 0.7128 0.2876
vn 0.6394 0.6264 -0.4459
vn -0.0000 0.5832 -0.8123
vn -0.6394 0.6264 -0.4459
vn -0.4784 0.7951 -0.3727
vn 0.0000 0.2153 -0.9766
vn -0.8179 0.2719 -0.5071
vn 0.0000 0.7632 -0.6461
vn 0.0000 0.9931 -0.1174
vn -0.7986 -0.4383 -0.4125
vn 0.0000 -0.4932 -0.8699
vn 0.7986 -0.4383 -0.4125
vn 0.8178 0.2719 -0.5072
vn 0.4784 0.7951 -0.3727
vn 0.4778 0.8607 0.1759
vn 0.0001 0.8926 0.4508
vn -0.4778 0.8607 0.1759
vn -0.5393 -0.8137 -0.2169
vn 0.0000 -0.8498 -0.5272
vn 0.5393 -0.8137 -0.2169
vn 0.5397 -0.7398 0.4018
vn 0.7984 -0.3306 0.5033
vn 0.8182 0.3816 0.4301
vn 0.0000 0.4382 0.8989
vn -0.8182 0.3816 0.4301
vn -0.0000 -0.7030 0.7112
vn 0.0002 -0.2760 0.9612
vn -0.7984 -0.3306 0.5033
vn -0.5397 -0.7398 0.4018
vn -0.6590 -0.7439 0.1114
vn -0.8328 0.5479 -0.0792
vn -0.0900 -0.2466 -0.9649
vn -0.6590 -0.7438 0.1115
vn 0.6657 -0.7418 0.0811
vn 0.8717 -0.4852 0.0683
vn 0.0244 -0.2721 -0.9620
vn -0.9008 0.4342 -0.0029
vn 0.1261 0.1135 0.9855
vn -0.0636 0.0450 0.9970
vn 0.1701 0.2388 0.9561
vn 0.9970 -0.0606 -0.0487
vn 0.0235 -0.3072 -0.9514
vn -0.9957 0.0059 0.0928
vn -0.9957 0.0058 0.0928
vn -0.6590 -0.7438 0.1114
vn -0.8840 -0.4502 0.1261
vn 0.2053 0.2309 0.9511
vn 0.9065 0.3700 -0.2034
vn 0.0166 -0.1997 -0.9797
vn -0.8839 -0.4503 0.1261
vn -0.8840 -0.4503 0.1261
vn -0.2767 0.0020 -0.9610
vn -0.8767 -0.4735 0.0850
vn 0.8615 0.4229 -0.2808
vn 0.9491 0.0783 -0.3050
vn -0.3587 0.2798 -0.8905
vn -0.9642 -0.1253 0.2337
vn 0.1516 -0.1429 0.9781
vn 0.2044 -0.3602 0.9102
vn 0.1349 -0.3113 0.9407
vn 0.8085 -0.4364 -0.3949
vn -0.4195 0.3759 -0.8263
vn -0.8343 0.3638 0.4142
vn -0.8767 -0.4735 0.0851
vn -0.4018 0.2133 -0.8905
vn -0.5915 0.6577 0.4664
vn 0.8084 -0.4364 -0.3949
vn 0.5810 -0.7265 -0.3668
vn 0.6612 -0.6383 -0.3942
vn -0.4897 0.0039 -0.8719
vn -0.6625 0.5575 0.5003
vn 0.3409 -0.2445 0.9077
vn 0.5433 -0.1291 0.8296
vn -0.5075 -0.2485 -0.8251
vn -0.7076 0.2681 0.6538
vn 0.8178 -0.2505 -0.5182
vn 0.6764 0.3092 -0.6685
vn -0.3460 -0.4716 -0.8111
vn -0.6091 -0.1958 0.7685
vn 0.6862 0.1311 0.7155
vn 0.5980 0.4851 0.6381
vn 0.3968 0.9178 0.0117
vn 0.2473 0.5049 -0.8270
vn -0.2237 -0.3501 -0.9096
vn -0.4372 -0.8988 -0.0313
vn -0.3127 -0.3561 0.8806
vn -0.6091 -0.1957 0.7685
vn -0.3128 -0.3561 0.8805
vn 0.1408 0.5268 0.8383
vn 0.6517 -0.7571 -0.0459
vn -0.0127 -0.1036 -0.9945
vn 0.8293 0.5541 -0.0724
vn 0.8670 0.4540 -0.2053
vn -0.2532 0.0724 -0.9647
vn -0.8693 -0.4933 0.0293
vn -0.6585 -0.7471 0.0909
vn 0.6518 -0.7570 -0.0460
vn 0.9504 0.1057 -0.2924
vn -0.3315 0.3503 -0.8760
vn -0.9733 -0.1391 0.1827
vn 0.1808 -0.4343 0.8824
vn 0.1241 -0.2270 0.9660
vn 0.1926 -0.0724 0.9786
vn 0.6517 -0.7571 -0.0460
vn 0.8652 -0.3523 -0.3568
vn -0.3888 0.4010 -0.8295
vn -0.8741 0.2564 0.4126
vn 0.1417 -0.3854 0.9118
vn 0.8652 -0.3523 -0.3569
vn -0.4048 -0.0176 -0.9142
vn 0.8224 -0.4933 -0.2836
vn 0.8758 -0.2407 -0.4183
vn -0.4691 -0.4050 -0.7848
vn -0.8066 0.2251 0.5465
vn -0.7357 0.4250 0.5273
vn 0.7695 0.1645 -0.6170
vn -0.3413 -0.5755 -0.7432
vn -0.6826 -0.1566 0.7138
vn 0.5709 0.5695 0.5914
vn 0.5810 0.3133 0.7512
vn 0.4487 -0.0861 0.8895
vn 0.7696 0.1645 -0.6170
vn 0.8758 -0.2407 -0.4184
vn 0.8223 -0.4933 -0.2836
vn 0.8652 -0.3522 -0.3568
vn -0.4340 -0.5871 -0.6833
vn 0.7696 0.1644 -0.6170
vn -0.5103 -0.4913 0.7058
vn -0.6825 -0.1566 0.7139
vn 0.5089 0.3892 -0.7678
vn -0.6464 -0.4190 -0.6376
vn -0.5561 -0.4500 0.6988
vn 0.6199 0.3366 0.7088
vn 0.5089 0.5671 0.6476
vn 0.5144 0.3308 -0.7912
vn 0.5144 0.3309 -0.7912
vn 0.5144 0.3309 -0.7911
vn -0.8122 -0.0744 -0.5787
vn 0.5492 0.0431 -0.8346
vn 0.4517 -0.3092 -0.8369
vn -0.6970 0.3953 -0.5983
vn -0.5878 0.3996 0.7035
vn -0.7078 -0.1078 0.6982
vn 0.2414 -0.3502 -0.9050
vn -0.2454 0.5070 -0.8263
vn -0.3969 0.9177 0.0156
vn -0.1387 0.5338 0.8341
vn 0.3147 -0.3542 0.8806
vn 0.5309 -0.3308 0.7802
vn 0.6943 -0.0372 0.7187
vn 0.6199 0.3367 0.7088
vn 0.4363 -0.8989 -0.0391
vn 0.2414 -0.3503 -0.9050
vn 0.4844 -0.8091 -0.3327
vn 0.0831 -0.0665 -0.9943
vn 0.4192 -0.9020 0.1036
vn 0.4821 -0.6969 0.5310
vn 0.6051 0.0919 -0.7908
vn 0.0430 0.4263 -0.9036
vn 0.4363 -0.8990 -0.0391
vn 0.1056 -0.0196 0.9942
vn 0.8801 0.4718 -0.0528
vn 0.3956 0.6121 -0.6847
vn 0.5461 0.8292 -0.1192
vn -0.0694 0.9888 -0.1320
vn -0.1387 0.5338 0.8342
vn 0.0273 0.6339 0.7730
vn 0.5975 0.2839 0.7500
vn 0.4371 0.7105 0.5515
vn -0.1056 -0.0196 0.9942
vn -0.4821 -0.6969 0.5310
vn -0.4192 -0.9019 0.1036
vn -0.4844 -0.8091 -0.3327
vn -0.5975 0.2839 0.7500
vn -0.0274 0.6338 0.7730
vn -0.0831 -0.0665 -0.9943
vn -0.8801 0.4718 -0.0528
vn -0.4371 0.7105 0.5515
vn 0.0694 0.9888 -0.1320
vn 0.3969 0.9178 0.0117
vn -0.0430 0.4263 -0.9036
vn -0.6051 0.0920 -0.7908
vn -0.3956 0.6121 -0.6847
vn -0.5461 0.8292 -0.1192
vn -0.2561 0.0411 -0.9658
vn 0.0762 -0.1780 -0.9811
vn -0.2825 -0.0254 -0.9589
vn 0.0058 -0.0940 -0.9956
vn -0.2758 -0.1800 -0.9442
vn -0.0323 -0.1018 -0.9943
vn 0.1407 -0.2367 -0.9613
vn 0.1857 -0.2427 -0.9522
vn 0.1946 -0.1918 -0.9620
vn 0.1095 -0.1233 -0.9863
vn -0.2141 -0.2133 -0.9532
vn -0.0146 -0.1761 -0.9843
vn 0.1907 -0.2173 -0.9573
vn -0.0000 -0.1390 -0.9903
vn -0.0000 -0.1389 -0.9903
vn -0.1194 -0.0978 -0.9880
vn 0.0253 -0.1819 -0.9830
vn -0.0253 -0.1566 -0.9873
vn 0.1447 -0.1175 -0.9825
vn 0.0547 -0.1056 -0.9929
vn -0.0335 -0.1506 -0.9880
vn -0.0030 -0.1604 -0.9870
vn 0.0434 -0.1585 -0.9864
vn 0.0450 -0.1292 -0.9906
vn 0.1094 0.1545 0.9819
vn 0.0059 0.1841 0.9829
vn 0.0763 0.0998 0.9921
vn -0.2560 0.3071 0.9166
vn 0.1946 0.0802 0.9776
vn 0.1857 0.0293 0.9822
vn 0.1408 0.0391 0.9893
vn -0.0323 0.1762 0.9838
vn -0.2825 0.2407 0.9286
vn 0.0000 0.1390 0.9903
vn 0.0000 0.1389 0.9903
vn 0.1905 0.0547 0.9802
vn -0.0147 0.1038 0.9945
vn -0.2758 0.0861 0.9574
vn 0.0545 0.1720 0.9836
vn 0.1447 0.1585 0.9767
vn -0.0254 0.1233 0.9920
vn -0.2143 0.0587 0.9750
vn 0.0449 0.1486 0.9879
vn 0.0430 0.1194 0.9919
vn 0.0256 0.0978 0.9949
vn -0.1190 0.1785 0.9767
vn -0.0029 0.1193 0.9929
vn -0.0332 0.1291 0.9911
vn 0.2561 0.0411 -0.9658
vn -0.0762 -0.1780 -0.9811
vn -0.0058 -0.0940 -0.9956
vn 0.2825 -0.0254 -0.9589
vn -0.1095 -0.1233 -0.9863
vn -0.1945 -0.1918 -0.9620
vn -0.1857 -0.2427 -0.9522
vn -0.1407 -0.2367 -0.9613
vn 0.0323 -0.1018 -0.9943
vn 0.2753 -0.1800 -0.9444
vn -0.1907 -0.2173 -0.9573
vn 0.0144 -0.1762 -0.9843
vn 0.2141 -0.2133 -0.9532
vn -0.0543 -0.1050 -0.9930
vn -0.1447 -0.1175 -0.9825
vn 0.0251 -0.1566 -0.9873
vn -0.0253 -0.1819 -0.9830
vn 0.1192 -0.0978 -0.9880
vn -0.0450 -0.1292 -0.9906
vn -0.0431 -0.1585 -0.9864
vn 0.0029 -0.1604 -0.9870
vn 0.0334 -0.1506 -0.9880
vn 0.2825 0.2407 0.9286
vn 0.2560 0.3071 0.9166
vn -0.0763 0.0998 0.9921
vn -0.0059 0.1841 0.9829
vn 0.2758 0.0862 0.9573
vn 0.0323 0.1762 0.9838
vn -0.1407 0.0392 0.9893
vn -0.1857 0.0293 0.9822
vn -0.1945 0.0803 0.9776
vn -0.1094 0.1545 0.9819
vn 0.2143 0.0587 0.9750
vn 0.0147 0.1038 0.9945
vn -0.1905 0.0548 0.9802
vn 0.1192 0.1781 0.9768
vn -0.0254 0.0978 0.9949
vn 0.0254 0.1234 0.9920
vn -0.1447 0.1586 0.9767
vn -0.0548 0.1722 0.9835
vn 0.0330 0.1290 0.9911
vn 0.0029 0.1193 0.9929
vn -0.0431 0.1193 0.9919
vn -0.0449 0.1487 0.9879
usemtl mat0
s 1
f 441/441/426 442/442/427 443/443/428
f 442/442/427 441/441/426 444/444/429
f 445/445/430 443/443/428 446/446/431
f 446/446/431 443/443/428 442/442/427
f 442/442/427 447/447/432 446/446/431
f 447/447/432 442/442/427 448/448/433
f 442/442/427 444/444/429 448/448/433
f 449/449/434 450/450/435 451/451/436
f 450/450/435 452/452/437 451/451/436
f 453/453/438 449/449/434 451/451/436
f 451/451/436 454/454/439 453/453/438
f 454/454/439 451/451/436 455/455/440
f 451/451/436 452/452/437 455/455/440
f 455/455/440 452/452/437 456/456/441
f 457/457/442 458/458/443 459/459/444
f 458/458/443 457/457/442 460/460/445
f 457/457/442 461/461/446 460/460/445
f 461/461/446 457/457/442 462/462/447
f 457/457/442 463/463/448 462/462/447
f 463/463/448 457/457/442 464/464/449
f 465/465/450 459/459/444 466/466/451
f 466/466/451 459/459/444 458/458/443
f 458/458/443 467/467/452 466/466/451
f 467/467/452 458/458/443 460/460/445
f 460/460/445 468/468/453 467/467/452
f 468/468/453 460/460/445 461/461/446
f 461/461/446 469/469/454 468/468/453
f 469/469/454 461/461/446 462/462/447
f 462/462/447 470/470/455 469/469/454
f 470/470/455 462/462/447 463/463/448
f 463/463/448 471/471/450 470/470/455
f 471/471/450 463/463/448 464/464/449
f 472/472/456 465/465/450 473/473/457
f 473/473/457 465/465/450 466/466/451
f 466/466/451 474/474/458 473/473/457
f 474/474/458 466/466/451 467/467/452
f 467/467/452 475/475/459 474/474/458
f 475/475/459 467/467/452 468/468/453
f 468/468/453 476/476/460 475/475/459
f 476/476/460 468/468/453 469/469/454
f 469/469/454 477/477/461 476/476/460
f 477/477/461 469/469/454 470/470/455
f 470/470/455 478/478/462 477/477/461
f 478/478/462 470/470/455 471/471/450
f 479/479/463 480/480/464 481/481/465
f 480/480/464 479/479/463 482/482/466
f 479/479/463 483/483/467 482/482/466
f 484/484/468 481/481/465 485/485/469
f 481/481/465 480/480/464 485/485/469
f 485/485/469 480/480/464 486/486/470
f 480/480/464 487/487/471 486/486/470
f 487/487/471 480/480/464 482/482/466
f 482/482/466 488/488/472 487/487/471
f 488/488/472 482/482/466 483/483/467
f 483/483/467 489/489/473 488/488/472
f 489/489/473 483/483/467 490/490/474
f 483/483/467 491/491/475 490/490/474
f 491/491/475 483/483/467 492/492/463
f 493/493/476 484/484/468 494/494/477
f 494/494/477 484/484/468 485/485/469
f 485/485/469 495/495/478 494/494/477
f 495/495/478 485/485/469 486/486/470
f 486/486/470 496/496/479 495/495/478
f 496/496/479 486/486/470 497/497/480
f 486/486/470 487/487/471 497/497/480
f 497/497/480 487/487/471 498/498/481
f 487/487/471 488/488/472 498/498/481
f 498/498/481 488/488/472 489/489/473
f 489/489/473 499/499/482 498/498/481
f 499/499/482 489/489/473 490/490/474
f 490/490/474 500/500/483 499/499/482
f 500/500/483 490/490/474 491/491/475
f 491/491/475 501/501/465 500/500/483
f 501/501/465 491/491/475 492/492/463
f 502/502/484 496/496/479 497/497/480
f 503/503/485 502/502/484 497/497/480
f 497/497/480 498/498/481 503/503/485
f 503/503/485 498/498/481 499/499/482
f 499/499/482 504/504/486 503/503/485
f 504/504/486 499/499/482 500/500/483
f 500/500/483 505/505/468 504/504/486
f 505/505/468 500/500/483 501/501/465
f 506/506/487 502/502/484 503/503/485
f 506/506/487 503/503/485 504/504/486
f 504/504/486 507/507/476 506/506/487
f 507/507/476 504/504/486 505/505/468
f 508/508/488 509/509/489 510/510/490
f 511/511/491 510/510/490 512/512/492
f 510/510/490 513/513/493 512/512/492
f 513/513/493 510/510/490 514/514/494
f 510/510/490 509/509/489 514/514/494
f 514/514/494 509/509/489 515/515/495
f 516/516/496 512/512/492 513/513/493
f 517/517/491 512/512/492 518/518/497
f 512/512/492 516/516/496 518/518/497
f 516/516/496 513/513/493 519/519/498
f 513/513/493 520/520/499 519/519/498
f 520/520/499 513/513/493 514/514/494
f 514/514/494 521/521/500 520/520/499
f 521/521/500 514/514/494 515/515/495
f 515/515/495 522/522/501 521/521/500
f 523/523/495 518/518/497 516/516/496
f 516/516/496 524/524/502 523/523/495
f 524/524/502 516/516/496 519/519/498
f 525/525/503 518/518/497 526/526/489
f 526/526/489 518/518/497 523/523/495
f 527/527/504 524/524/502 519/519/498
f 528/528/505 527/527/504 519/519/498
f 519/519/498 520/520/499 528/528/505
f 528/528/505 520/520/499 529/529/506
f 520/520/499 521/521/500 529/529/506
f 529/529/506 521/521/500 530/530/507
f 521/521/500 522/522/501 530/530/507
f 530/530/507 522/522/501 531/531/508
f 532/532/509 533/533/510 534/534/507
f 533/533/510 532/532/509 535/535/511
f 536/536/506 534/534/507 537/537/512
f 537/537/512 534/534/507 533/533/510
f 533/533/510 538/538/513 537/537/512
f 538/538/513 533/533/510 539/539/514
f 533/533/510 535/535/511 539/539/514
f 539/539/514 535/535/511 540/540/515
f 541/541/505 536/536/506 542/542/516
f 542/542/516 536/536/506 537/537/512
f 537/537/512 543/543/517 542/542/516
f 543/543/517 537/537/512 538/538/513
f 538/538/513 544/544/518 543/543/517
f 544/544/518 538/538/513 545/545/519
f 538/538/513 539/539/514 545/545/519
f 545/545/519 539/539/514 546/546/520
f 539/539/514 540/540/515 546/546/520
f 546/546/520 540/540/515 547/547/521
f 548/548/504 541/541/505 549/549/522
f 549/549/522 541/541/505 542/542/516
f 542/542/516 550/550/515 549/549/522
f 550/550/515 542/542/516 543/543/517
f 543/543/517 551/551/521 550/550/515
f 551/551/521 543/543/517 544/544/518
f 552/552/521 553/553/523 554/554/520
f 553/553/523 552/552/521 555/555/524
f 556/556/525 554/554/520 557/557/526
f 557/557/526 554/554/520 553/553/523
f 553/553/523 558/558/527 557/557/526
f 558/558/527 553/553/523 559/559/528
f 553/553/523 555/555/524 559/559/528
f 559/559/528 555/555/524 560/560/529
f 561/561/518 556/556/525 562/562/530
f 562/562/530 556/556/525 557/557/526
f 557/557/526 563/563/531 562/562/530
f 563/563/531 557/557/526 558/558/527
f 564/564/521 561/561/518 565/565/524
f 565/565/524 561/561/518 562/562/530
f 562/562/530 566/566/529 565/565/524
f 566/566/529 562/562/530 563/563/531
f 567/567/529 568/568/532 569/569/528
f 568/568/532 567/567/529 570/570/533
f 571/571/527 569/569/528 572/572/534
f 572/572/534 569/569/528 568/568/532
f 568/568/532 573/573/535 572/572/534
f 573/573/535 568/568/532 574/574/536
f 568/568/532 575/575/537 574/574/536
f 575/575/537 568/568/532 570/570/533
f 576/576/531 571/571/527 577/577/538
f 577/577/538 571/571/527 572/572/534
f 572/572/534 578/578/539 577/577/538
f 578/578/539 572/572/534 573/573/535
f 573/573/535 579/579/540 578/578/539
f 579/579/540 573/573/535 580/580/541
f 573/573/535 574/574/536 580/580/541
f 580/580/541 574/574/536 581/581/542
f 574/574/536 582/582/543 581/581/542
f 582/582/543 574/574/536 575/575/537
f 575/575/537 583/583/544 582/582/543
f 584/584/529 576/576/531 585/585/533
f 576/576/531 577/577/538 585/585/533
f 585/585/533 577/577/538 586/586/545
f 577/577/538 578/578/539 586/586/545
f 586/586/545 578/578/539 587/587/546
f 578/578/539 588/588/547 587/587/546
f 588/588/547 578/578/539 579/579/540
f 589/589/548 590/590/549 591/591/550
f 592/592/551 591/591/550 593/593/552
f 591/591/550 590/590/549 593/593/552
f 593/593/552 590/590/549 594/594/553
f 590/590/549 595/595/554 594/594/553
f 595/595/554 590/590/549 596/596/555
f 597/597/556 592/592/551 598/598/557
f 598/598/557 592/592/551 593/593/552
f 593/593/552 599/599/558 598/598/557
f 599/599/558 593/593/552 594/594/553
f 594/594/553 600/600/559 599/599/558
f 600/600/559 594/594/553 601/601/560
f 594/594/553 595/595/554 601/601/560
f 601/601/560 595/595/554 602/602/561
f 595/595/554 603/603/562 602/602/561
f 604/604/563 597/597/556 605/605/564
f 597/597/556 598/598/557 605/605/564
f 605/605/564 598/598/557 606/606/565
f 598/598/557 599/599/558 606/606/565
f 606/606/565 599/599/558 607/607/566
f 599/599/558 600/600/559 607/607/566
f 607/607/566 600/600/559 608/608/567
f 600/600/559 609/609/556 608/608/567
f 609/609/556 600/600/559 601/601/560
f 601/601/560 610/610/551 609/609/556
f 610/610/551 601/601/560 602/602/561
f 602/602/561 611/611/550 610/610/551
f 611/611/550 602/602/561 612/612/555
f 613/613/567 614/614/568 615/615/569
f 614/614/568 613/613/567 616/616/564
f 617/617/570 615/615/569 618/618/571
f 618/618/571 615/615/569 614/614/568
f 614/614/568 619/619/572 618/618/571
f 619/619/572 614/614/568 620/620/573
f 614/614/568 616/616/564 620/620/573
f 620/620/573 616/616/564 621/621/565
f 622/622/574 617/617/570 623/623/575
f 623/623/575 617/617/570 618/618/571
f 618/618/571 624/624/576 623/623/575
f 624/624/576 618/618/571 619/619/572
f 619/619/572 625/625/577 624/624/576
f 625/625/577 619/619/572 626/626/578
f 619/619/572 620/620/573 626/626/578
f 626/626/578 620/620/573 627/627/579
f 620/620/573 621/621/565 627/627/579
f 627/627/579 621/621/565 628/628/566
f 629/629/580 625/625/577 626/626/578
f 630/630/581 629/629/580 626/626/578
f 626/626/578 627/627/579 630/630/581
f 630/630/581 627/627/579 631/631/582
f 627/627/579 628/628/566 631/631/582
f 631/631/582 628/628/566 632/632/583
f 633/633/575 634/634/584 635/635/585
f 634/634/584 633/633/575 636/636/586
f 633/633/575 637/637/587 636/636/586
f 638/638/588 635/635/585 634/634/584
f 634/634/584 639/639/589 638/638/588
f 639/639/589 634/634/584 640/640/590
f 634/634/584 636/636/586 640/640/590
f 640/640/590 636/636/586 641/641/591
f 636/636/586 642/642/592 641/641/591
f 642/642/592 636/636/586 637/637/587
f 637/637/587 643/643/577 642/642/592
f 644/644/593 638/638/588 639/639/589
f 645/645/594 641/641/591 642/642/592
f 646/646/588 645/645/594 642/642/592
f 642/642/592 643/643/577 646/646/588
f 646/646/588 643/643/577 647/647/585
f 648/648/595 649/649/596 650/650/597
f 649/649/596 648/648/595 651/651/589
f 652/652/598 650/650/597 653/653/599
f 653/653/599 650/650/597 649/649/596
f 649/649/596 654/654/600 653/653/599
f 654/654/600 649/649/596 655/655/601
f 649/649/596 651/651/589 655/655/601
f 655/655/601 651/651/589 656/656/590
f 657/657/602 652/652/598 658/658/603
f 658/658/603 652/652/598 653/653/599
f 653/653/599 659/659/604 658/658/603
f 659/659/604 653/653/599 654/654/600
f 654/654/600 660/660/605 659/659/604
f 660/660/605 654/654/600 661/661/606
f 654/654/600 662/662/607 661/661/606
f 662/662/607 654/654/600 655/655/601
f 655/655/601 663/663/608 662/662/607
f 663/663/608 655/655/601 656/656/590
f 656/656/590 664/664/609 663/663/608
f 665/665/610 661/661/606 662/662/607
f 662/662/607 666/666/598 665/665/610
f 666/666/598 662/662/607 663/663/608
f 663/663/608 667/667/597 666/666/598
f 667/667/597 663/663/608 664/664/609
f 664/664/609 668/668/594 667/667/597
f 669/669/611 665/665/610 666/666/598
f 670/670/612 671/671/602 672/672/613
f 671/671/602 670/670/612 673/673/614
f 670/670/612 674/674/615 673/673/614
f 675/675/616 672/672/613 676/676/617
f 672/672/613 677/677/603 676/676/617
f 677/677/603 672/672/613 671/671/602
f 671/671/602 673/673/614 678/678/618
f 678/678/618 673/673/614 679/679/606
f 673/673/614 674/674/615 679/679/606
f 679/679/606 674/674/615 680/680/619
f 681/681/620 675/675/616 682/682/621
f 682/682/621 675/675/616 676/676/617
f 676/676/617 683/683/622 682/682/621
f 682/682/621 683/683/622 681/681/620
f 684/684/623 683/683/622 676/676/617
f 684/684/623 676/676/617 677/677/603
f 677/677/603 685/685/604 684/684/623
f 684/684/623 685/685/604 686/686/624
f 686/686/624 679/679/606 680/680/619
f 687/687/625 686/686/624 680/680/619
f 687/687/625 684/684/623 686/686/624
f 688/688/626 687/687/625 680/680/619
f 689/689/627 688/688/626 681/681/620
f 688/688/626 689/689/627 687/687/625
f 689/689/627 684/684/623 687/687/625
f 684/684/623 689/689/627 683/683/622
f 689/689/627 681/681/620 683/683/622
f 690/690/628 691/691/629 692/692/544
f 691/691/629 693/693/630 692/692/544
f 693/693/630 691/691/629 694/694/631
f 695/695/632 690/690/628 696/696/633
f 696/696/633 690/690/628 697/697/547
f 690/690/628 692/692/544 697/697/547
f 692/692/544 693/693/630 698/698/543
f 693/693/630 699/699/542 698/698/543
f 699/699/542 693/693/630 694/694/631
f 694/694/631 700/700/634 699/699/542
f 701/701/635 695/695/632 702/702/636
f 695/695/632 696/696/633 702/702/636
f 702/702/636 696/696/633 703/703/637
f 696/696/633 697/697/547 703/703/637
f 703/703/637 697/697/547 704/704/638
f 704/704/638 705/705/541 703/703/637
f 705/705/541 699/699/542 700/700/634
f 700/700/634 706/706/639 705/705/541
f 705/705/541 706/706/639 703/703/637
f 707/707/640 706/706/639 700/700/634
f 706/706/639 707/707/640 708/708/641
f 707/707/640 701/701/635 708/708/641
f 708/708/641 701/701/635 709/709/642
f 701/701/635 702/702/636 709/709/642
f 709/709/642 702/702/636 703/703/637
f 703/703/637 706/706/639 709/709/642
f 709/709/642 706/706/639 708/708/641
f 710/710/643 711/711/644 712/712/645
f 711/711/644 710/710/643 713/713/646
f 714/714/647 712/712/645 715/715/648
f 715/715/648 712/712/645 711/711/644
f 711/711/644 716/716/649 715/715/648
f 716/716/649 711/711/644 717/717/650
f 711/711/644 718/718/651 717/717/650
f 718/718/651 711/711/644 719/719/652
f 711/711/644 713/713/646 719/719/652
f 720/720/653 714/714/647 721/721/654
f 714/714/647 715/715/648 721/721/654
f 721/721/654 715/715/648 722/722/655
f 715/715/648 716/716/649 722/722/655
f 722/722/655 716/716/649 723/723/656
f 716/716/649 724/724/656 723/723/656
f 724/724/656 716/716/649 725/725/657
f 716/716/649 717/717/650 725/725/657
f 725/725/657 717/717/650 726/726/656
f 717/717/650 718/718/651 726/726/656
f 727/727/658 720/720/653 728/728/659
f 720/720/653 729/729/660 728/728/659
f 729/729/660 720/720/653 721/721/654
f 721/721/654 730/730/661 729/729/660
f 730/730/661 722/722/655 723/723/656
f 730/730/661 721/721/654 722/722/655
f 731/731/662 730/730/661 723/723/656
f 731/731/662 729/729/660 730/730/661
f 732/732/656 731/731/662 723/723/656
f 733/733/663 727/727/658 728/728/659
f 734/734/664 733/733/663 728/728/659
f 728/728/659 735/735/665 734/734/664
f 735/735/665 728/728/659 736/736/666
f 728/728/659 729/729/660 736/736/666
f 736/736/666 729/729/660 731/731/662
f 731/731/662 732/732/656 736/736/666
f 736/736/666 732/732/656 735/735/665
f 732/732/656 737/737/656 735/735/665
f 738/738/656 733/733/663 734/734/664
f 734/734/664 739/739/656 738/738/656
f 739/739/656 734/734/664 735/735/665
f 735/735/665 737/737/656 739/739/656
f 740/740/667 741/741/668 742/742/669
f 741/741/668 743/743/670 742/742/669
f 744/744/671 740/740/667 742/742/669
f 742/742/669 745/745/672 744/744/671
f 745/745/672 742/742/669 746/746/673
f 742/742/669 747/747/674 746/746/673
f 747/747/674 742/742/669 748/748/675
f 742/742/669 743/743/670 748/748/675
f 749/749/676 744/744/671 745/745/672
f 745/745/672 750/750/677 749/749/676
f 750/750/677 745/745/672 746/746/673
f 746/746/673 751/751/676 750/750/677
f 751/751/676 746/746/673 752/752/676
f 746/746/673 753/753/678 752/752/676
f 753/753/678 746/746/673 747/747/674
f 747/747/674 754/754/679 753/753/678
f 754/754/679 747/747/674 755/755/680
f 747/747/674 748/748/675 755/755/680
f 756/756/681 752/752/676 757/757/682
f 752/752/676 753/753/678 757/757/682
f 757/757/682 753/753/678 754/754/679
f 758/758/676 752/752/676 756/756/681
f 759/759/683 757/757/682 754/754/679
f 759/759/683 756/756/681 757/757/682
f 760/760/684 759/759/683 754/754/679
f 754/754/679 755/755/680 760/760/684
f 761/761/685 758/758/676 756/756/681
f 756/756/681 759/759/683 761/761/685
f 762/762/677 758/758/676 763/763/686
f 758/758/676 761/761/685 763/763/686
f 763/763/686 761/761/685 764/764/687
f 761/761/685 759/759/683 764/764/687
f 764/764/687 759/759/683 760/760/684
f 760/760/684 765/765/688 764/764/687
f 766/766/676 762/762/677 763/763/686
f 763/763/686 767/767/689 766/766/676
f 767/767/689 763/763/686 764/764/687
f 764/764/687 768/768/690 767/767/689
f 768/768/690 764/764/687 765/765/688
f 769/769/676 766/766/676 767/767/689
f 769/769/676 767/767/689 768/768/690
f 770/770/691 771/771/692 772/772/693
f 771/771/692 770/770/691 773/773/694
f 774/774/695 772/772/693 771/771/692
f 775/775/696 774/774/695 771/771/692
f 771/771/692 776/776/697 775/775/696
f 776/776/697 771/771/692 777/777/698
f 771/771/692 778/778/699 777/777/698
f 778/778/699 771/771/692 773/773/694
f 773/773/694 779/779/700 778/778/699
f 780/780/656 775/775/696 776/776/697
f 776/776/697 781/781/656 780/780/656
f 781/781/656 776/776/697 777/777/698
f 777/777/698 782/782/656 781/781/656
f 782/782/656 777/777/698 783/783/656
f 777/777/698 784/784/701 783/783/656
f 784/784/701 777/777/698 778/778/699
f 778/778/699 785/785/702 784/784/701
f 785/785/702 778/778/699 779/779/700
f 779/779/700 786/786/703 785/785/702
f 787/787/704 783/783/656 788/788/705
f 783/783/656 784/784/701 788/788/705
f 788/788/705 784/784/701 785/785/702
f 789/789/657 783/783/656 787/787/704
f 790/790/706 785/785/702 786/786/703
f 790/790/706 788/788/705 785/785/702
f 788/788/705 790/790/706 787/787/704
f 791/791/707 790/790/706 786/786/703
f 792/792/708 791/791/707 786/786/703
f 793/793/709 789/789/657 787/787/704
f 793/793/709 787/787/704 790/790/706
f 790/790/706 791/791/707 793/793/709
f 794/794/656 789/789/657 795/795/710
f 789/789/657 793/793/709 795/795/710
f 795/795/710 793/793/709 791/791/707
f 791/791/707 796/796/711 795/795/710
f 796/796/711 791/791/707 797/797/712
f 791/791/707 792/792/708 797/797/712
f 798/798/656 795/795/710 796/796/711
f 798/798/656 794/794/656 795/795/710
f 799/799/656 798/798/656 796/796/711
f 796/796/711 797/797/712 799/799/656
f 800/800/713 801/801/714 802/802/715
f 801/801/714 803/803/716 802/802/715
f 804/804/717 800/800/713 805/805/718
f 800/800/713 802/802/715 805/805/718
f 805/805/718 802/802/715 806/806/719
f 802/802/715 807/807/720 806/806/719
f 807/807/720 802/802/715 808/808/721
f 802/802/715 809/809/722 808/808/721
f 809/809/722 802/802/715 803/803/716
f 810/810/723 804/804/717 811/811/724
f 811/811/724 804/804/717 805/805/718
f 805/805/718 812/812/725 811/811/724
f 812/812/725 805/805/718 806/806/719
f 806/806/719 813/813/676 812/812/725
f 813/813/676 806/806/719 814/814/676
f 806/806/719 815/815/676 814/814/676
f 815/815/676 806/806/719 807/807/720
f 807/807/720 816/816/676 815/815/676
f 816/816/676 807/807/720 808/808/721
f 817/817/726 810/810/723 818/818/727
f 818/818/727 810/810/723 819/819/728
f 810/810/723 811/811/724 819/819/728
f 819/819/728 811/811/724 820/820/729
f 811/811/724 812/812/725 820/820/729
f 820/820/729 812/812/725 813/813/676
f 813/813/676 821/821/730 820/820/729
f 820/820/729 821/821/730 819/819/728
f 822/822/677 821/821/730 813/813/676
f 823/823/731 817/817/726 818/818/727
f 818/818/727 824/824/732 823/823/731
f 824/824/732 818/818/727 825/825/733
f 818/818/727 826/826/734 825/825/733
f 825/825/733 826/826/734 822/822/677
f 826/826/734 821/821/730 822/822/677
f 821/821/730 826/826/734 819/819/728
f 826/826/734 818/818/727 819/819/728
f 827/827/677 825/825/733 822/822/677
f 828/828/677 823/823/731 824/824/732
f 829/829/676 824/824/732 825/825/733
f 825/825/733 827/827/677 829/829/676
f 829/829/676 828/828/677 824/824/732
o Mesh_0017.rip
v 0.015914 0.024121 -0.042058
v 0.043229 0.024121 -0.017652
v 0.001006 0.012911 -0.002690
v 0.033707 0.093624 -0.081320
v 0.015914 0.024121 -0.042058
v -0.015729 0.024121 -0.041527
v -0.039870 0.024121 -0.021048
v -0.039101 0.024121 0.012696
v -0.016306 0.024121 0.038164
v 0.016876 0.024121 0.039649
v 0.043710 0.024121 0.015880
v 0.051212 0.037125 0.009513
v 0.080066 0.093624 -0.034630
v 0.022743 0.155056 -0.055322
v 0.033707 0.093624 -0.081320
v -0.032368 0.093624 -0.081744
v -0.079111 0.093624 -0.032402
v -0.078150 0.093624 0.031372
v -0.031887 0.093624 0.074773
v 0.034381 0.093624 0.073924
v 0.080835 0.093624 0.027234
v 0.056502 0.155056 0.011848
v 0.056213 0.155056 -0.024762
v 0.022743 0.155056 -0.055322
v -0.024578 0.155056 -0.056277
v -0.054297 0.155056 -0.019138
v -0.053624 0.155056 0.022034
v -0.024289 0.155056 0.047608
v 0.024089 0.155056 0.048775
v -0.024578 0.155056 -0.056277
v 0.024089 0.155056 0.048775
v 0.022743 0.155056 -0.055322
v -0.054297 0.155056 -0.019138
v 0.022743 0.155056 -0.055322
v 0.056502 0.155056 0.011848
v -0.024289 0.155056 0.047608
v -0.053624 0.155056 0.022034
v 0.056213 0.155056 -0.024762
vt 0.9409 -0.9575
vt 0.8013 -0.9575
vt 0.5215 -0.9995
vt 0.9365 -0.7036
vt -0.0591 -0.9575
vt 0.0654 -0.9575
vt 0.1855 -0.9575
vt 0.3110 -0.9575
vt 0.4380 -0.9575
vt 0.5566 -0.9575
vt 0.6821 -0.9575
vt 0.7095 -0.9097
vt 0.8096 -0.7036
vt 0.9370 -0.3203
vt -0.0635 -0.7036
vt 0.0640 -0.7036
vt 0.1948 -0.7036
vt 0.3164 -0.7036
vt 0.4370 -0.7036
vt 0.5649 -0.7036
vt 0.6914 -0.7036
vt 0.7065 -0.3203
vt 0.8081 -0.3203
vt -0.0630 -0.3203
vt 0.0723 -0.3203
vt 0.2065 -0.3203
vt 0.3198 -0.3203
vt 0.4268 -0.3203
vt 0.5654 -0.3203
vt 0.0757 -0.0005
vt 0.5625 -0.0005
vt -0.0610 -0.0005
vt 0.2095 -0.0005
vt 0.9390 -0.0005
vt 0.7036 -0.0005
vt 0.4253 -0.0005
vt 0.3203 -0.0005
vt 0.8071 -0.0005
vn 0.2229 -0.7634 -0.6062
vn 0.5957 -0.7579 -0.2661
vn -0.0040 -1.0000 -0.0068
vn 0.3850 -0.0528 -0.9214
vn -0.2248 -0.7670 -0.6010
vn -0.5965 -0.7576 -0.2650
vn -0.6004 -0.7654 0.2318
vn -0.2708 -0.7556 0.5964
vn 0.2299 -0.7460 0.6250
vn 0.5987 -0.7483 0.2857
vn 0.8764 -0.4816 0.0099
vn 0.9181 -0.0528 -0.3928
vn 0.2357 0.7833 -0.5752
vn -0.3883 -0.0515 -0.9201
vn -0.9304 -0.0469 -0.3636
vn -0.9138 -0.0604 0.4018
vn -0.3649 -0.0411 0.9301
vn 0.3921 -0.0392 0.9191
vn 0.9248 -0.0414 0.3783
vn 0.5836 0.7867 0.2014
vn 0.5829 0.7695 -0.2611
vn -0.2837 0.7657 -0.5772
vn -0.5875 0.7828 -0.2053
vn -0.5750 0.7713 0.2728
vn -0.2356 0.7866 0.5708
vn 0.2482 0.7806 0.5736
vn -0.5875 0.7828 -0.2052
vn 0.2358 0.7833 -0.5752
vn 0.5836 0.7867 0.2013
vn -0.2355 0.7866 0.5708
usemtl mat0.001
s 1
f 830/830/735 831/831/736 832/832/737
f 831/831/736 830/830/735 833/833/738
f 834/834/735 832/832/737 835/835/739
f 835/835/739 832/832/737 836/836/740
f 832/832/737 837/837/741 836/836/740
f 837/837/741 832/832/737 838/838/742
f 832/832/737 839/839/743 838/838/742
f 839/839/743 832/832/737 840/840/744
f 832/832/737 831/831/736 840/840/744
f 840/840/744 831/831/736 841/841/745
f 831/831/736 842/842/746 841/841/745
f 842/842/746 831/831/736 833/833/738
f 833/833/738 843/843/747 842/842/746
f 844/844/738 834/834/735 845/845/748
f 834/834/735 835/835/739 845/845/748
f 845/845/748 835/835/739 836/836/740
f 836/836/740 846/846/749 845/845/748
f 846/846/749 836/836/740 847/847/750
f 836/836/740 837/837/741 847/847/750
f 847/847/750 837/837/741 838/838/742
f 838/838/742 848/848/751 847/847/750
f 848/848/751 838/838/742 839/839/743
f 839/839/743 849/849/752 848/848/751
f 849/849/752 839/839/743 850/850/753
f 839/839/743 840/840/744 850/850/753
f 850/850/753 840/840/744 841/841/745
f 841/841/745 842/842/746 850/850/753
f 850/850/753 842/842/746 851/851/754
f 842/842/746 852/852/755 851/851/754
f 852/852/755 842/842/746 843/843/747
f 853/853/747 844/844/738 845/845/748
f 854/854/756 853/853/747 845/845/748
f 845/845/748 855/855/757 854/854/756
f 855/855/757 846/846/749 847/847/750
f 855/855/757 845/845/748 846/846/749
f 856/856/758 855/855/757 847/847/750
f 847/847/750 857/857/759 856/856/758
f 857/857/759 847/847/750 848/848/751
f 848/848/751 858/858/760 857/857/759
f 858/858/760 849/849/752 850/850/753
f 850/850/753 851/851/754 858/858/760
f 858/858/760 848/848/751 849/849/752
f 859/859/756 860/860/760 861/861/747
f 860/860/760 859/859/756 862/862/761
f 863/863/762 860/860/760 864/864/763
f 860/860/760 862/862/761 865/865/764
f 862/862/761 866/866/758 865/865/764
f 867/867/755 863/863/762 864/864/763
o Mesh_0020.rip
v 0.018992 0.334417 -0.027308
v -0.001687 0.411991 -0.039087
v 0.021973 0.411991 -0.030704
v -0.001494 0.334417 -0.034524
v -0.022942 0.411991 -0.030598
v -0.019961 0.334417 -0.027202
v -0.034195 0.411991 -0.003433
v -0.029675 0.334417 -0.003645
v -0.022846 0.411991 0.020337
v -0.019865 0.334417 0.016941
v -0.001879 0.411991 0.028720
v -0.001687 0.334417 0.024157
v 0.023320 0.411991 0.019063
v 0.020050 0.334417 0.015880
v 0.033419 0.411991 -0.003433
v 0.028898 0.334417 -0.003645
v 0.021973 0.411991 -0.030704
v 0.018992 0.334417 -0.027308
v -0.034195 0.411991 -0.003433
v -0.000629 0.411991 -0.004918
v -0.022942 0.411991 -0.030598
v -0.022846 0.411991 0.020337
v -0.001687 0.411991 -0.039087
v 0.021973 0.411991 -0.030704
v 0.033419 0.411991 -0.003433
v 0.023320 0.411991 0.019063
v -0.001879 0.411991 0.028720
vt 0.9937 -0.5249
vt 0.8750 -0.9995
vt 0.9937 -0.9995
vt 0.8750 -0.5249
vt 0.7671 -0.9995
vt 0.7666 -0.5249
vt 0.6265 -0.9995
vt 0.6260 -0.5249
vt 0.5015 -0.9995
vt 0.5015 -0.5249
vt 0.3950 -0.9995
vt 0.3955 -0.5249
vt 0.2671 -0.9995
vt 0.2676 -0.5249
vt 0.1499 -0.9995
vt 0.1504 -0.5249
vt 0.0088 -0.9995
vt 0.0088 -0.5249
vt 0.4741 -0.9995
vt 0.4956 -0.5029
vt 0.8740 -0.8325
vt 0.1240 -0.8311
vt 0.9995 -0.5190
vt 0.8765 -0.1694
vt 0.4741 -0.0005
vt 0.1421 -0.1509
vt 0.0005 -0.5220
vn -0.3108 -0.3545 0.8819
vn -0.2341 0.0911 0.9679
vn -0.2985 0.4516 0.8408
vn -0.2347 0.0886 0.9680
vn 0.8478 0.1752 0.5005
vn 0.4874 0.2113 0.8472
vn 0.9329 0.3117 -0.1806
vn 0.9333 0.3528 -0.0673
vn 0.8240 0.1806 -0.5370
vn 0.7787 0.2567 -0.5725
vn -0.2502 0.1034 -0.9627
vn -0.2592 0.1030 -0.9603
vn -0.8608 0.0250 -0.5083
vn -0.4835 0.2194 -0.8474
vn -0.9580 0.0787 0.2757
vn -0.9341 0.3497 -0.0717
vn -0.8219 0.4531 0.3452
vn -0.8621 -0.3564 0.3603
vn 0.0000 -1.0000 -0.0000
usemtl mat0.004
s 1
f 868/868/765 869/869/766 870/870/767
f 869/869/766 868/868/765 871/871/768
f 871/871/768 872/872/769 869/869/766
f 872/872/769 871/871/768 873/873/770
f 873/873/770 874/874/771 872/872/769
f 874/874/771 873/873/770 875/875/772
f 875/875/772 876/876/773 874/874/771
f 876/876/773 875/875/772 877/877/774
f 877/877/774 878/878/775 876/876/773
f 878/878/775 877/877/774 879/879/776
f 879/879/776 880/880/777 878/878/775
f 880/880/777 879/879/776 881/881/778
f 881/881/778 882/882/779 880/880/777
f 882/882/779 881/881/778 883/883/780
f 883/883/780 884/884/781 882/882/779
f 884/884/781 883/883/780 885/885/782
f 886/886/783 887/887/783 888/888/783
f 887/887/783 886/886/783 889/889/783
f 887/887/783 890/890/783 888/888/783
f 887/887/783 891/891/783 890/890/783
f 887/887/783 892/892/783 891/891/783
f 887/887/783 893/893/783 892/892/783
f 887/887/783 894/894/783 893/893/783
f 887/887/783 889/889/783 894/894/783
